<svg xmlns="http://www.w3.org/2000/svg" version="1.1" xmlns:xlink="http://www.w3.org/1999/xlink" xmlns:svgjs="http://svgjs.dev/svgjs" viewBox="0 0 14.72524110941069 6.506337412593893"><g transform="matrix(0.7862039496638966,0,0,0.7862039496638966,5.760906799053013,2.312922731078085)"><rect width="16.49453931957774" height="16.49453931957774" x="-6.20999452737944" y="-7.051338278852896" fill="#0e1425"></rect><g transform="matrix(1,0,0,1,0,0)" clip-path="url(#SvgjsClipPath5636)"><g clip-path="url(#SvgjsClipPath563138edcca5-cbf8-4a78-a2a4-5de13d1ec934)"><path d=" M -3.25086021599878 -0.3902538980946433 C -3.3240843653823102 -0.3732058140843234 -3.361860516295046 -0.36674706860023965 -3.398134633374272 -0.3556320182322753 C -3.61307567494931 -0.289842936324611 -3.8277914114493248 -0.223377939191869 -4.042281842874312 -0.1562370268340465 C -4.074749033610666 -0.14700324414958232 -4.106604698900291 -0.13574088689364072 -4.137660991302089 -0.12251636727178439 C -4.267350807837704 -0.06888686955736145 -4.344504535185579 0.06551492348263732 -4.32541522049063 0.2045514999746505 C -4.309062460025415 0.31682832101312 -4.274031678734075 0.4255760507610167 -4.221774885978556 0.5262871471121302 C -4.040103893815726 0.5426593158973696 -3.8606859524031583 0.5315442655294094 -3.6817186211406416 0.5337973162796723 C -3.5027512898781255 0.5360503670299335 -3.3216811112486986 0.5342479264297244 -3.1416623563027284 0.5342479264297244 L -1.504445477778665 0.5342479264297244 C -1.3242014177576666 0.5342479264297244 -1.144407967886722 0.5332716044379437 -0.9644643146324263 0.5342479264297244 C -0.7845206613781297 0.5352242484215051 -0.6060790419573414 0.5283899944790409 -0.42801293099493254 0.5386789262385738 C -0.40041726896565333 0.5971519999680053 -0.39132548665455236 0.6626547543707513 -0.401952643983563 0.7264331554271128 C -0.4008511525056564 1.3172331299403839 -0.40062584743063123 1.9080331044536532 -0.40127672875848397 2.498833078966922 C -0.40127672875848397 2.7013072397238425 -0.40127672875848397 2.9038314682752144 -0.40127672875848397 3.1064057646210346 C -0.400082020123115 3.15136009505572 -0.4014862593895385 3.196345902983661 -0.40548242349230623 3.241138199486728 C -0.42372493487629637 3.397055376128357 -0.5410218917027927 3.5231085599030196 -0.6952247499760618 3.552509813173004 C -0.756321635622454 3.5617987689400756 -0.8181226907642016 3.565644056226245 -0.8798998098059081 3.5640003719993425 C -1.8700405128545876 3.564701321121646 -2.860156182006045 3.564701321121646 -3.8502468172602744 3.5640003719993425 C -3.9064308679557613 3.5656038313547143 -3.9626569396405924 3.563093738868785 -4.018474606613207 3.556490202831802 C -4.192693041602707 3.533267659534645 -4.3252833551843315 3.3886265564791183 -4.333300898116549 3.2130501668001266 C -4.336680474241943 3.162581829994248 -4.334652728566708 3.111813086421666 -4.334652728566708 3.0611945462324366 C -4.334652728566708 2.2905009862593193 -4.335854355633513 1.5198074262862027 -4.333451101499901 0.7490387646214134 C -4.330133415865834 0.6365698114898886 -4.347966191002412 0.5244780820599662 -4.386022285672692 0.4185913212495842 C -4.40208027843335 0.37655410482823193 -4.415253619082136 0.3334710078873484 -4.4254506738022865 0.2896417166428946 C -4.458378361585536 0.1801133553851666 -4.445763425832738 0.06193574558833115 -4.390457789214525 -0.038174099585905674 C -4.335152152596316 -0.13828394476014116 -4.241825893646814 -0.21187262223046455 -4.131577754276383 -0.2423035654940725 C -3.763053753225117 -0.3624662721747396 -3.3917509895818627 -0.4745179961544602 -3.0214245479303865 -0.589573787801196 C -2.4418898271684295 -0.7698178478221944 -1.8623300725092475 -0.9499117044598422 -1.2827452839528388 -1.1298553577141364 C -1.178481199682865 -1.173658693540541 -1.0628999033560063 -1.182794618329931 -0.9530488574977634 -1.155915644725507 C -0.8369970321784503 -1.1249453118030934 -0.7405481432833376 -1.044300957280934 -0.6895170214087303 -0.9355672813498388 C -0.6333062215634166 -0.8095996412087396 -0.5926763597638174 -0.6772436420006096 -0.5685281961196345 -0.5414336034372559 C -0.5928611442224696 -0.48450652114728887 -0.6407009218197093 -0.4809016399468694 -0.6826827674662672 -0.4678339455953482 C -1.2943109444708512 -0.2773259877120453 -1.9059391214754378 -0.08684306372596406 -2.5175672984800235 0.10361482636288999 C -2.8179740651816862 0.19714146639600627 -3.1185310352667006 0.2903676996624225 -3.419238208735064 0.3832935261621373 C -3.424402990298871 0.385510987252081 -3.429724689350115 0.3873434590951974 -3.4351597673702505 0.3887759496544432 C -3.4932133750353476 0.397637949272142 -3.5572000163428013 0.45847031952922856 -3.607142641306952 0.40589913535643785 C -3.662117079613356 0.3479957310746944 -3.5933990317303515 0.29189476739315734 -3.5679395582523865 0.2406754136705247 C -3.4878811549263924 0.07958228502675802 -3.401964819649717 -0.07850677594999222 -3.319428060498436 -0.2383231758352754 C -3.2995261122044504 -0.2773760555064927 -3.2831539434192094 -0.3187570876196475 -3.25086021599878 -0.3902538980946433 Z M -3.4006129891995585 0.2541937181720981 L -2.9838737020926764 0.13403101149143404 C -2.8637109954120126 -0.10231401221109881 -2.73874178046412 -0.32619215509551336 -2.6121203282993704 -0.5881468556593631 C -2.7723684074287673 -0.5528972493243168 -2.9297863661912587 -0.5058300076276697 -3.0830830367959017 -0.4473311837679581 C -3.1656948976388577 -0.2896176312495855 -3.2466545212649565 -0.13663548530676395 -3.3255863992158194 0.017773592777892144 C -3.361034397686616 0.0870924541942999 -3.391901192965212 0.1588896714359973 -3.424795733919043 0.22956036330256313 L -3.4422193263877405 0.2546443283221518 Z M -1.4588587509316882 -0.3706523565673606 C -1.4199560746438227 -0.34061167989719277 -1.3824052288061144 -0.367272780441968 -1.3474829421770464 -0.37763681389317283 C -1.1644601195640583 -0.4320104386661727 -0.9824136189428492 -0.48953833448954276 -0.8003671183216432 -0.5470662303129114 C -0.768899509509644 -0.5570547553057414 -0.7390090362228285 -0.5722252970241761 -0.7035610377520318 -0.5870203302842332 C -0.7155241893657296 -0.6941096670603699 -0.7465010026836691 -0.7982049847207319 -0.795034898212688 -0.894411554311708 C -0.8320796798982966 -0.9721022511568489 -0.9028248915580313 -1.0284158828343135 -0.9868446187516988 -1.0470932934878239 C -1.083049885787907 -1.0702997162155319 -1.1175966639585977 -1.0630148521230152 -1.1631833908055746 -0.971991601812413 C -1.253305420816074 -0.7909965248746607 -1.3504119081523855 -0.6133810240623011 -1.443162497371525 -0.433662675883031 C -1.4506021869891264 -0.4131472056705735 -1.4554217761273311 -0.39177447268597665 -1.4575069204815327 -0.37005154303395615 L -1.4760570383253584 -0.35307856071530963 L -1.4621632253654062 -0.3495487812065662 Z M -1.3317115869252087 -0.9864862283057685 L -1.7685781274011019 -0.8640704708748401 C -1.9520515601641435 -0.5555527214722324 -2.09512028280581 -0.2685891575804701 -2.128615637293045 -0.13926404451540275 C -1.9721788135331546 -0.17681489035311115 -1.8261811249161477 -0.22825954915077062 -1.6795075210740604 -0.2767752419730882 C -1.6547149983136955 -0.2888108185818815 -1.634881285258618 -0.30909590127810804 -1.6234065573925234 -0.3341529344131061 C -1.5150348163048983 -0.5421095186623336 -1.408916125967536 -0.7512677299783657 -1.3022717237884467 -0.9601255345276962 L -1.3042994694636825 -1.0019571767909032 Z M -1.960838458090166 -0.7724464070308334 C -1.9927566770522178 -0.7990324058839311 -2.02565121800605 -0.7799565761983753 -2.0559171997512418 -0.7710945765806766 C -2.1580555004298083 -0.7410538999105087 -2.2580158520497857 -0.7035030540728018 -2.36113047472013 -0.6779684789031595 C -2.421462492363839 -0.6635994181488459 -2.471270436451622 -0.621217994872355 -2.4951118926690707 -0.563964110939879 C -2.58898900726334 -0.3790637460350057 -2.6863207996746783 -0.1959658217303415 -2.7810240328773776 -0.011516066975521877 C -2.7919888798619867 0.00981281346029661 -2.8185748787150864 0.03249352434627317 -2.783051778552614 0.06921825157555017 L -2.314041714039642 -0.07760555564988914 C -2.197709193634423 -0.29915554609236483 -2.0855072662713514 -0.5122941470671954 -1.9743567625917366 -0.725958459883753 C -1.968824719800256 -0.7416166003944656 -1.9655131090777629 -0.7579724182376166 -1.9645184409822574 -0.7745492543977468 C -1.9608045185023264 -0.7772681242762445 -1.957381704970759 -0.7803637571025883 -1.9543046109144036 -0.7837867624738217 C -1.9535535939976483 -0.7847630844656023 -1.9567078650480156 -0.7886683724327233 -1.9580596954981724 -0.7912969316413636 Z M -4.219672038611643 1.351129026783221 C -4.222075292745257 1.3952888214883654 -4.224778953645572 1.4225507355665405 -4.224778953645572 1.449887751336392 C -4.225079360412273 2.011798608451852 -4.225079360412273 2.573734499464538 -4.224778953645572 3.1356954243744486 C -4.224778953645572 3.152518203309741 -4.225229563795625 3.169416083936711 -4.224103038420494 3.1862388628720035 C -4.224483066021189 3.257449350762437 -4.195896764872005 3.325754522466699 -4.144909319550363 3.3754672816552977 C -4.093921874228724 3.4251800408438973 -4.024915000307519 3.452028214833266 -3.953736948388999 3.449845800652713 C -3.9257240173940686 3.451422936177897 -3.897560883015789 3.450371512494441 -3.869472850329181 3.450371512494441 L -0.8687096577462721 3.450371512494441 C -0.8293563713083545 3.450371512494441 -0.78977777979541 3.451648241252922 -0.7508000018158705 3.4480433600525027 C -0.652262891121365 3.443180778175666 -0.5664428130283188 3.379231169499831 -0.5336059094905679 3.2861992144919823 C -0.5177380290775924 3.2385198400916018 -0.5104901613291024 3.188395112609948 -0.5122019273630749 3.138173780199737 C -0.5108500969129168 2.5761627874953765 -0.5108500969129168 2.014201862585467 -0.5122019273630749 1.4522910054700071 C -0.5141180651109649 1.4184157700519824 -0.517878724931983 1.3846701159247254 -0.5234671811143898 1.3512041284748897 Z M -3.617356471374809 0.6444221081175601 C -3.8002290906044465 0.6482522943930049 -4.006007725795086 0.6339078712830031 -4.209308005160436 0.6528334975852066 C -4.231780770417427 0.8423269298117055 -4.230595074256247 1.0338799287871423 -4.205778225651689 1.2230806424766343 C -4.07555189228652 1.2342707945362734 -3.942021084487632 1.2287132693522909 -3.8087906834554435 1.2270610321354327 C -3.7853148645219923 1.221701232876488 -3.7627294849321746 1.2130009298766022 -3.7417248727893 1.2012260501990901 C -3.816150649239636 1.1261243585236749 -3.879836883780387 1.0637899544330793 -3.941194965879202 0.9992024995922224 C -3.9595232425839 0.9786191961249886 -3.9748687954027417 0.9555629454317691 -3.986781692726179 0.9307097567842433 C -3.9975963363274394 0.9098314864984787 -3.9621483378566427 0.86769943746857 -3.9402937455790976 0.8759606235528643 C -3.914324175933137 0.8845560162911694 -3.890289752882671 0.8981551112868165 -3.8695479520208553 0.9159898252158596 C -3.7845328370442832 0.9976253640670361 -3.700569145751169 1.080387428293344 -3.6191589119750196 1.165552746653267 C -3.5822572445713847 1.208325467909934 -3.527882232480981 1.2319607680305726 -3.4714338844494756 1.2297646930357462 C -3.3480418050267664 1.2266855236770537 -3.2244995222207082 1.229163879502342 -3.101032341106326 1.227211235518782 C -3.0820232047622147 1.2236999659522005 -3.063694297873941 1.2171847113598264 -3.0467338180249994 1.2079101007582012 Z M -0.5194116897639112 1.2164716936091995 C -0.5084443518184552 1.1203899515218396 -0.506257355821385 1.023508542640107 -0.5128778425881513 0.9270297738921449 C -0.5158819102551675 0.8345044897480351 -0.49102325031060445 0.7384494260951788 -0.5318034688903546 0.650580446834941 C -0.8738165727801976 0.6303780917742539 -1.241814861989735 0.6375878541750943 -1.365432246487468 0.6689052596037428 C -1.3429017389848434 0.6971434956736988 -1.3246520279077174 0.7233539860684188 -1.3027223339384961 0.7455840868043417 C -1.1962281351427562 0.8535052177419147 -1.0886825126635626 0.9604500266877041 -0.9814372969510674 1.0676952424001975 C -0.8112568636145752 1.237800574045014 -0.8112568636145752 1.237800574045014 -0.5712318570199466 1.2272863372104565 C -0.5538976527685624 1.2246966269915183 -0.5367224324047588 1.2211362163467594 -0.5197871982222901 1.2166218969925506 Z M -2.3618814916368853 1.2194757612762162 L -2.9395637040041844 0.6440465996591809 L -3.342559381534463 0.6440465996591809 C -3.3645641771953607 0.6440465996591809 -3.3876203965397123 0.6429200742840511 -3.391976294656885 0.6815974454968894 C -3.2291558271045844 0.8447183198158921 -3.0632561901935906 1.0124203973270947 -2.8951035025323346 1.1778694240880359 C -2.8726507020818532 1.2024180526217536 -2.8427543266380306 1.2189098749098302 -2.810013285864086 1.22480798138517 C -2.6978864601926924 1.2308161167192047 -2.5852339226795698 1.2288634727356433 -2.47280669024147 1.228487964277267 C -2.4417145898878516 1.2287132693522909 -2.410171879384179 1.2234561509350133 -2.3622570000952625 1.2196259646595682 Z M -2.704795815826834 0.6680040393036397 C -2.7021352406433943 0.6814220164040514 -2.6968522517434033 0.6941828591576518 -2.689249765650023 0.705554885141348 C -2.5315362131316506 0.8651459799516059 -2.3726210335464706 1.0232350409283544 -2.2151327861031245 1.1829763391219645 C -2.1835089036486566 1.2152134970024087 -2.139440489697143 1.2321228324551974 -2.094369265889056 1.2293140828856954 C -1.982167338525986 1.2281875575105656 -1.8700405128545907 1.2293140828856954 -1.7578385854915193 1.2280373541272136 C -1.7377113321225082 1.2280373541272136 -1.7115008417277884 1.2331442691611432 -1.7035400624101924 1.2031786941826528 C -1.8727774316930588 1.0047973131668602 -2.0566943926982395 0.8194242801253293 -2.253735055624277 0.6486278028513941 C -2.4007841679247517 0.6486278028513839 -2.546631653158409 0.6486278028513839 -2.6921036299336873 0.6491535146931122 C -2.6951076976007036 0.6492286163847856 -2.6984121720344234 0.6577902092357841 -2.7051713242852102 0.6681542426869891 Z M -2.0495335559588326 0.6502049383765662 C -2.0383358127429974 0.6720994643757496 -2.025375582426991 0.6930468133748788 -2.010781083054321 0.7128397492338632 C -1.857573632036471 0.8677745391602449 -1.7028641471851151 1.0212823969447962 -1.5505579164673708 1.1771935088629581 C -1.5153819890526972 1.2136432502888879 -1.465915559962208 1.2327153068382193 -1.4153748714516214 1.2293140828856985 C -1.303623554238602 1.2278871507438625 -1.1917971353339083 1.2293140828856954 -1.0800458181208907 1.2278871507438625 C -1.0594679546018257 1.2278871507438625 -1.0342337861988864 1.2308912184108791 -1.0267987187230205 1.2016015586574678 C -1.1955905131619224 1.0049824466537072 -1.3782550200199513 0.8207116566905792 -1.5733888307366954 0.6502049383765618 Z" fill="#ffffff" transform="matrix(1,0,0,1,0,0)" fill-rule="nonzero"></path></g><g clip-path="url(#SvgjsClipPath563138edcca5-cbf8-4a78-a2a4-5de13d1ec934)"><path d=" M -0.660302463346992 2.227190260176944 L -0.660302463346992 2.6431034286753965 C -0.660302463346992 2.7893264223674317 -0.660302463346992 2.9354743143677897 -0.660302463346992 3.081697308059823 C -0.6588996959536702 3.121000802469803 -0.6606325240598001 3.1603535798945126 -0.6654844800725952 3.1993816589151978 C -0.672505837405196 3.251644061830058 -0.7139889169897704 3.292540262403384 -0.7663460519926781 3.298816298693451 C -0.7941367967722273 3.302891984042441 -0.8222387511515228 3.3044504108505954 -0.850309743285794 3.3034726035773243 C -1.210146981999936 3.303472603577326 -1.5699591868168525 3.3033224001939754 -1.9297463577365432 3.303021993427274 C -1.9400953287214247 3.301553828299795 -1.9501995998866293 3.2986993716956245 -1.9597870344067094 3.2945355022679514 C -1.9748073727417919 3.266898079731398 -1.9536286956893258 3.2527789616964204 -1.9372565269040836 3.2395610639615464 C -1.5390673576410303 2.91842623035747 -1.1405777816112743 2.59766690521177 -0.7417877988148165 2.277283088524447 C -0.7154749642846232 2.259242309377024 -0.6882794608445102 2.2425239676308903 -0.660302463346992 2.2271902601769424 Z" fill="#ff6b00" transform="matrix(1,0,0,1,0,0)" fill-rule="nonzero"></path></g></g><g><path d=" M 0.3249313747312121 0.3249313747312125 Q 0.3578696236765678 0.3756740825659497 0.40683188562236694 0.41306344623365077 Q 0.455794147568166 0.45045280990135195 0.539475104348259 0.5020857406805582 Q 0.6302778446841045 0.5590600091265789 0.68280099840778 0.6000102645721563 Q 0.7353241521314553 0.6409605200177337 0.7718232928546873 0.7006054572971618 Q 0.8083224335779193 0.7602503945765897 0.8083224335779193 0.8403704595788064 Q 0.8083224335779193 0.931173199914652 0.7611406175210584 1.002391035472178 Q 0.7139588014641975 1.0736088710297038 0.6276071758506974 1.1136689035308123 Q 0.5412555502371971 1.1537289360319205 0.4308679051230319 1.1537289360319205 Q 0.35608917778762966 1.1537289360319205 0.2768593357298821 1.1341440312536009 Q 0.19762949367213448 1.1145591264752812 0.15667923822655705 1.0860719922522708 Q 0.14065522522611373 1.075389316918642 0.13887477933717557 1.052243520362446 L 0.1281921040035467 0.7816157452438475 L 0.1281921040035467 0.7798352993549094 Q 0.1281921040035467 0.7727135157991567 0.13709433344823743 0.7718232928546878 Q 0.14599656289292817 0.7709330699102186 0.1477770087818663 0.7780548534659713 Q 0.20653172311682522 0.9258318622478375 0.2822006733966965 1.0201954943615594 Q 0.3578696236765678 1.1145591264752812 0.47537905234648564 1.1145591264752812 Q 0.5519382255708261 1.1145591264752812 0.6035711563500323 1.0727186480852349 Q 0.6552040871292386 1.0308781696951883 0.6552040871292386 0.9329536458035901 Q 0.6552040871292386 0.8546140266903116 0.6204853922949447 0.7958593123553527 Q 0.5857666974606508 0.7371045980203939 0.5350239896259136 0.6979347884637546 Q 0.48428128179117635 0.6587649789071153 0.3970394332332071 0.6017907104610946 Q 0.311578030564176 0.546596887904012 0.263505991562846 0.5083173012918417 Q 0.21543395256151596 0.4700377146796715 0.18160548067169113 0.4139536691781198 Q 0.1477770087818663 0.35786962367656816 0.1477770087818663 0.2830908963411659 Q 0.1477770087818663 0.19050771011638223 0.1994099395610726 0.12641165811460886 Q 0.25104287034027895 0.0623156061128356 0.33383360417590285 0.03115780305641791 Q 0.4166243380115267 4.440892098500626e-16 0.5074270783473723 4.440892098500626e-16 Q 0.5679622385712694 4.440892098500626e-16 0.6284973987951664 0.011572898278098265 Q 0.6890325590190635 0.023145796556196307 0.7299828144646409 0.04095025544557784 Q 0.7460068274650842 0.04629159311239217 0.7513481651318986 0.05430359961261377 Q 0.756689502798713 0.0623156061128356 0.756689502798713 0.07477872733540258 L 0.7620308404655275 0.31691936823099076 Q 0.7620308404655275 0.3222607058978052 0.7522383880763677 0.3249313747312125 Q 0.7424459356872078 0.32760204356461964 0.7406654897982697 0.3204802600088671 Q 0.7050565720195068 0.21187306078364 0.6454116347400788 0.12374098928120159 Q 0.5857666974606508 0.035608917778763294 0.4664768229017949 0.035608917778763294 Q 0.3863567578995782 0.035608917778763294 0.3391749418427173 0.08190051089115524 Q 0.29199312578585634 0.12819210400354697 0.29199312578585634 0.20831216900576377 Q 0.29199312578585634 0.27418866689647525 0.3249313747312121 0.3249313747312125 M 1.1208245920619886 1.1029862281971834 Q 1.039814304115303 1.052243520362446 1.0006444945586637 0.9712332324157603 Q 0.9614746850020244 0.8902229444690746 0.9614746850020244 0.8012006500221671 Q 0.9614746850020244 0.6890325590190638 1.0220098452259214 0.6044613792945017 Q 1.0825450054498185 0.5198901995699396 1.1777988605080094 0.47448882940201687 Q 1.2730527155662004 0.4290874592340941 1.3709772394577984 0.4290874592340941 Q 1.4546581962378915 0.4290874592340941 1.522315140017541 0.46291593112391893 Q 1.5899720837971907 0.4967444030137438 1.5899720837971907 0.5537186714597645 Q 1.5899720837971907 0.583986251571713 1.5668262872409948 0.6062418251834399 Q 1.5436804906847987 0.6284973987951668 1.5027302352392216 0.6284973987951668 Q 1.4350732914595719 0.6284973987951668 1.4048057113476233 0.5483773337929501 Q 1.3870012524582418 0.5038661865694963 1.3674163476799222 0.48517150473564574 Q 1.3478314429016025 0.46647682290179526 1.305100741567087 0.46647682290179526 Q 1.221419784786994 0.46647682290179526 1.1724575228411949 0.5421457731816666 Q 1.1234952608953959 0.6178147234615379 1.1234952608953959 0.7442263815761464 Q 1.1234952608953959 0.8920033903580127 1.1920424276195145 0.9836963536383274 Q 1.2605895943436334 1.075389316918642 1.4065861572365614 1.075389316918642 Q 1.4564386421268296 1.075389316918642 1.495608451683469 1.062926195696075 Q 1.534778261240108 1.050463074473508 1.5810698543525001 1.0237563861394356 L 1.582850300241438 1.0237563861394356 Q 1.5881916379082526 1.0237563861394356 1.592642752630598 1.0290977238062502 Q 1.5970938673529433 1.0344390614730645 1.5935329755750671 1.037999953250941 Q 1.5276564776843555 1.0967546675858997 1.4635604256825823 1.12524180180891 Q 1.3994643736808088 1.1537289360319205 1.317563862789654 1.1537289360319205 Q 1.2018348800086744 1.1537289360319205 1.1208245920619886 1.1029862281971834 M 2.2469261892733203 0.45401370167922817 Q 2.2843155529410213 0.48072039001330047 2.2843155529410213 0.5181097536810015 Q 2.2843155529410213 0.5519382255708264 2.2638404252182327 0.5733035762380841 Q 2.243365297495444 0.5946689269053419 2.207756379716681 0.5946689269053419 Q 2.1846105831604854 0.5946689269053419 2.169476793104511 0.5848764745161821 Q 2.1543430030485364 0.5750840221270223 2.1383189900480932 0.5572795632376408 Q 2.12229497704765 0.5412555502371975 2.109831855825083 0.5332435437369758 Q 2.097368734602516 0.5252315372367541 2.0795642757131345 0.5252315372367541 Q 2.0599793709348146 0.5252315372367541 2.037723797323088 0.5403653272927283 Q 2.0154682237113613 0.5554991173487026 1.9691766305989693 0.6035711563500327 L 1.9691766305989693 0.9881474683606727 Q 1.9691766305989693 1.037999953250941 1.9834201977104744 1.063816418640544 Q 1.9976637648219797 1.0896328840301472 2.0314922367118045 1.1003155593637761 Q 2.065320708601629 1.110998234697405 2.131197206492341 1.110998234697405 Q 2.1383189900480932 1.110998234697405 2.1383189900480932 1.1216809100310339 Q 2.1383189900480932 1.1323635853646628 2.131197206492341 1.1323635853646628 Q 2.072442492157382 1.1323635853646628 2.036833574378619 1.1305831394757246 L 1.896178349152505 1.1288026935867865 L 1.7929124875940925 1.1305831394757246 Q 1.7679862451489585 1.1323635853646628 1.7234750979255047 1.1323635853646628 Q 1.7181337602586904 1.1323635853646628 1.7181337602586904 1.1216809100310339 Q 1.7181337602586904 1.110998234697405 1.7234750979255047 1.110998234697405 Q 1.7840102581494017 1.110998234697405 1.8035951629277214 1.0860719922522708 Q 1.823180067706041 1.0611457498071368 1.823180067706041 0.9881474683606727 L 1.823180067706041 0.6480823035734864 Q 1.823180067706041 0.5911080351274657 1.8098267235390049 0.5644013467933934 Q 1.7964733793719687 0.5376946584593212 1.7662057992600202 0.5376946584593212 Q 1.739499110925948 0.5376946584593212 1.677183504813113 0.5644013467933934 L 1.6754030589241746 0.5644013467933934 Q 1.6682812753684222 0.5644013467933934 1.6647203835905457 0.5554991173487026 Q 1.6611594918126695 0.546596887904012 1.666500829479484 0.5448164420150737 L 1.8997392409303815 0.4308679051230323 Q 1.9104219162640104 0.427307013345156 1.9122023621529485 0.427307013345156 Q 1.93000682104233 0.427307013345156 1.9478112799317113 0.4655865999573262 Q 1.9656157388210929 0.5038661865694963 1.9691766305989693 0.5661817926823316 Q 2.038614020267557 0.487842173569053 2.084905613379949 0.4575745934571045 Q 2.131197206492341 0.427307013345156 2.1685865701600417 0.427307013345156 Q 2.2095368256056194 0.427307013345156 2.2469261892733203 0.45401370167922817 M 2.4864378905360236 0.21543395256151632 Q 2.4606214251464205 0.19050771011638223 2.4606214251464205 0.1442161170039904 Q 2.4606214251464205 0.09970496978053656 2.4864378905360236 0.07566895027987175 Q 2.5122543559256267 0.05163293077920672 2.5585459490380185 0.05163293077920672 Q 2.6030570962614723 0.05163293077920672 2.6279833387066063 0.07566895027987175 Q 2.6529095811517402 0.09970496978053656 2.6529095811517402 0.1442161170039904 Q 2.6529095811517402 0.19050771011638223 2.6288735616510754 0.21543395256151632 Q 2.60483754215041 0.2403601950066504 2.5585459490380185 0.2403601950066504 Q 2.5122543559256267 0.2403601950066504 2.4864378905360236 0.21543395256151632 M 2.3894035895888943 1.1216809100310339 Q 2.3894035895888943 1.110998234697405 2.394744927255709 1.110998234697405 Q 2.455280087479606 1.110998234697405 2.4748649922579253 1.0860719922522708 Q 2.494449897036245 1.0611457498071368 2.494449897036245 0.9881474683606727 L 2.494449897036245 0.6641063165739297 Q 2.494449897036245 0.6035711563500327 2.481986775813678 0.5759742450714914 Q 2.4695236545911112 0.5483773337929501 2.4392560744791627 0.5483773337929501 Q 2.4125493861450904 0.5483773337929501 2.369818684810575 0.5697426844602078 L 2.3680382389216366 0.5697426844602078 Q 2.360916455365884 0.5697426844602078 2.357355563588008 0.5608404550155172 Q 2.3537946718101312 0.5519382255708264 2.359136009476946 0.5483773337929501 L 2.6155202174840393 0.4290874592340941 L 2.620861555150854 0.427307013345156 Q 2.6279833387066063 0.427307013345156 2.635995345206828 0.4353190198453777 Q 2.6440073517070495 0.4433310263455993 2.6440073517070495 0.4486723640124137 L 2.6440073517070495 0.4860617276801149 Q 2.6404464599291733 0.5608404550155172 2.6404464599291733 0.6623258706849915 L 2.6404464599291733 0.9881474683606727 Q 2.6404464599291733 1.0611457498071368 2.660921587651962 1.0860719922522708 Q 2.681396715374751 1.110998234697405 2.741931875598648 1.110998234697405 Q 2.747273213265462 1.110998234697405 2.747273213265462 1.1216809100310339 Q 2.747273213265462 1.1323635853646628 2.741931875598648 1.1323635853646628 Q 2.697420728375194 1.1323635853646628 2.670714040041122 1.1305831394757246 L 2.5674481784827092 1.1288026935867865 L 2.4641823169242967 1.1305831394757246 Q 2.4392560744791627 1.1323635853646628 2.394744927255709 1.1323635853646628 Q 2.3894035895888943 1.1323635853646628 2.3894035895888943 1.1216809100310339 M 3.0873227296024526 1.1288026935867865 L 3.0873227296024526 1.4777700878186635 Q 3.0873227296024526 1.531183464486808 3.0997858508250196 1.556109706931942 Q 3.1122489720475865 1.581035949377076 3.1460774439374117 1.590828401766236 Q 3.1799059158272365 1.600620854155396 3.2529041972737005 1.600620854155396 Q 3.2564650890515767 1.600620854155396 3.2564650890515767 1.6113035294890246 Q 3.2564650890515767 1.6219862048226537 3.2529041972737005 1.6219862048226537 Q 3.1888081452719272 1.6219862048226537 3.153199227493164 1.6202057589337153 L 3.0143244481559885 1.6184253130447772 L 2.9128390324865143 1.6202057589337153 Q 2.886132344152442 1.6219862048226537 2.83984075104005 1.6219862048226537 Q 2.8344994133732357 1.6219862048226537 2.8344994133732357 1.6113035294890246 Q 2.8344994133732357 1.600620854155396 2.83984075104005 1.600620854155396 Q 2.8843518982635037 1.600620854155396 2.9057172489307614 1.590828401766236 Q 2.927082599598019 1.581035949377076 2.935094606098241 1.556109706931942 Q 2.943106612598463 1.531183464486808 2.943106612598463 1.4777700878186635 L 2.943106612598463 0.6498627494624245 Q 2.943106612598463 0.5911080351274657 2.9297532684314267 0.5644013467933934 Q 2.9163999242643905 0.5376946584593212 2.8843518982635037 0.5376946584593212 Q 2.854084318151555 0.5376946584593212 2.7988904955944727 0.5626209009044553 L 2.7953296038165965 0.5626209009044553 Q 2.7882078202608436 0.5626209009044553 2.7846469284829674 0.5546088944042336 Q 2.781086036705091 0.546596887904012 2.7846469284829674 0.5430359961261356 L 3.019665785822803 0.4308679051230323 Q 3.0232266776006793 0.4290874592340941 3.0303484611564317 0.4290874592340941 Q 3.0499333659347516 0.4290874592340941 3.065957378935195 0.4620257081794499 Q 3.0819813919356385 0.49496395712480556 3.0855422837135147 0.5519382255708264 Q 3.222636617161752 0.42196567567834153 3.3632918423878655 0.42196567567834153 Q 3.438070569723268 0.42196567567834153 3.502166621725041 0.4611354852349808 Q 3.566262673726815 0.5003052947916201 3.604542260338985 0.5750840221270223 Q 3.642821846951155 0.6498627494624245 3.642821846951155 0.7495677192429608 Q 3.642821846951155 0.8902229444690746 3.583176909671727 0.9810256848049201 Q 3.5235319723922993 1.0718284251407657 3.4345096779453916 1.1136689035308123 Q 3.345487383498484 1.1555093819208586 3.2529041972737005 1.1555093819208586 Q 3.1674427946046695 1.1555093819208586 3.0873227296024526 1.1288026935867865 M 3.0873227296024526 0.5875471433495894 L 3.0873227296024526 0.5911080351274657 L 3.0873227296024526 1.0166346025836832 Q 3.130053430936968 1.062926195696075 3.1772352469938294 1.0878524381412091 Q 3.2244170630506903 1.112778680586343 3.29207400683034 1.112778680586343 Q 3.381096301277247 1.112778680586343 3.4327292320564533 1.0353292844175337 Q 3.4843621628356596 0.9578798882487242 3.4843621628356596 0.8047615418000434 Q 3.4843621628356596 0.6641063165739297 3.4202661108338863 0.5875471433495894 Q 3.356170058832113 0.510987970125249 3.260025980829453 0.510987970125249 Q 3.1692232404936074 0.510987970125249 3.0873227296024526 0.5875471433495894 M 4.271361844305187 1.0184150484726213 Q 4.276703181972001 1.0184150484726213 4.281154296694347 1.0255368320283738 Q 4.285605411416693 1.0326586155841264 4.280264073749878 1.0362195073620026 Q 4.214387575859167 1.098535113474838 4.155632861524207 1.1261320247533793 Q 4.096878147189249 1.1537289360319205 4.031001649298537 1.1537289360319205 Q 3.954442476074197 1.1537289360319205 3.9019193223505217 1.1172297953086885 Q 3.8493961686268463 1.0807306545854565 3.8493961686268463 0.9952692519164253 L 3.8493961686268463 0.5928884810164038 Q 3.8493961686268463 0.5341337666814449 3.8307014867929956 0.5145488619031252 Q 3.812006804959145 0.49496395712480556 3.7585934282910007 0.49496395712480556 Q 3.7568129824020624 0.49496395712480556 3.7541423135686554 0.4905128424024603 Q 3.751471644735248 0.4860617276801149 3.751471644735248 0.48072039001330047 Q 3.751471644735248 0.47537905234648603 3.7541423135686554 0.47092793762414065 Q 3.7568129824020624 0.46647682290179526 3.7585934282910007 0.46647682290179526 Q 3.9259553418511866 0.4593550393460426 3.968686043185702 0.3222607058978052 Q 3.9722469349635783 0.31513892234205265 3.9838198332416765 0.31513892234205265 Q 3.9953927315197744 0.31513892234205265 3.9953927315197744 0.3222607058978052 L 3.9953927315197744 0.46291593112391893 Q 4.079073688299867 0.4611354852349808 4.232192034748548 0.4451114722345375 Q 4.235752926526424 0.4451114722345375 4.24020404124877 0.45846481640157355 Q 4.244655155971115 0.4718181605686097 4.244655155971115 0.487842173569053 Q 4.244655155971115 0.5038661865694963 4.238423595359832 0.5198901995699396 Q 4.232192034748548 0.5359142125703831 4.225070251192795 0.5341337666814449 Q 4.125365281412259 0.510987970125249 3.9953927315197744 0.5056466324584346 L 3.9953927315197744 0.9365145375814664 Q 3.9953927315197744 1.0059519272500541 4.030111426354068 1.03889017619541 Q 4.064830121188362 1.0718284251407657 4.1271457273011976 1.0718284251407657 Q 4.2019244546365995 1.0718284251407657 4.2678009525273115 1.0201954943615594 L 4.271361844305187 1.0184150484726213 M 5.604871477844306 1.1216809100310339 Q 5.604871477844306 1.1323635853646628 5.5995301401774915 1.1323635853646628 Q 5.5389949799535945 1.1323635853646628 5.501605616285893 1.1305831394757246 L 5.371633066393408 1.1288026935867865 L 5.220295165833666 1.1305831394757246 Q 5.188247139832779 1.1323635853646628 5.134833763164635 1.1323635853646628 Q 5.12949242549782 1.1323635853646628 5.12949242549782 1.1216809100310339 Q 5.12949242549782 1.110998234697405 5.134833763164635 1.110998234697405 Q 5.2024907069442845 1.110998234697405 5.232758287056233 1.1020960052527142 Q 5.2630258671681815 1.0931937758080235 5.273708542501811 1.0682675333628895 Q 5.284391217835439 1.0433412909177553 5.284391217835439 0.9881474683606727 L 5.284391217835439 0.5768644680159605 L 4.673698277929654 0.5768644680159605 L 4.673698277929654 0.9881474683606727 Q 4.673698277929654 1.0415608450288172 4.684380953263283 1.0673773104184203 Q 4.6950636285969125 1.0931937758080235 4.72622143165333 1.1020960052527142 Q 4.757379234709747 1.110998234697405 4.8250361784893965 1.110998234697405 Q 4.828597070267273 1.110998234697405 4.828597070267273 1.1216809100310339 Q 4.828597070267273 1.1323635853646628 4.8250361784893965 1.1323635853646628 Q 4.7645010182655 1.1323635853646628 4.730672546375675 1.1305831394757246 L 4.582895537593808 1.1288026935867865 L 4.452922987701324 1.1305831394757246 Q 4.419094515811499 1.1323635853646628 4.358559355587602 1.1323635853646628 Q 4.354998463809726 1.1323635853646628 4.354998463809726 1.1216809100310339 Q 4.354998463809726 1.110998234697405 4.358559355587602 1.110998234697405 Q 4.422655407589375 1.110998234697405 4.452922987701324 1.1020960052527142 Q 4.483190567813272 1.0931937758080235 4.4938732431469015 1.0673773104184203 Q 4.504555918480531 1.0415608450288172 4.504555918480531 0.9881474683606727 L 4.504555918480531 0.16380102178231004 Q 4.504555918480531 0.11038764511416566 4.4938732431469015 0.08546140266903146 Q 4.483190567813272 0.06053516022389749 4.452922987701324 0.050742707834737555 Q 4.422655407589375 0.04095025544557784 4.36033980147654 0.04095025544557784 Q 4.356778909698664 0.04095025544557784 4.356778909698664 0.030267580111948966 Q 4.356778909698664 0.01958490477832009 4.36033980147654 0.01958490477832009 L 4.454703433590262 0.0213653506672582 Q 4.536603944481417 0.024926242445134417 4.582895537593808 0.024926242445134417 Q 4.645211143706644 0.024926242445134417 4.730672546375675 0.0213653506672582 L 4.8250361784893965 0.01958490477832009 Q 4.828597070267273 0.01958490477832009 4.828597070267273 0.030267580111948966 Q 4.828597070267273 0.04095025544557784 4.8250361784893965 0.04095025544557784 Q 4.759159680598685 0.04095025544557784 4.728001877542268 0.05163293077920672 Q 4.69684407448585 0.0623156061128356 4.685271176207753 0.08813207150243874 Q 4.673698277929654 0.11394853689204187 4.673698277929654 0.16736191356018626 L 4.673698277929654 0.5305728749035686 L 5.284391217835439 0.5305728749035686 L 5.284391217835439 0.16736191356018626 Q 5.284391217835439 0.11394853689204187 5.273708542501811 0.08813207150243874 Q 5.2630258671681815 0.0623156061128356 5.231868064111763 0.05163293077920672 Q 5.200710261055346 0.04095025544557784 5.134833763164635 0.04095025544557784 Q 5.12949242549782 0.04095025544557784 5.12949242549782 0.030267580111948966 Q 5.12949242549782 0.01958490477832009 5.134833763164635 0.01958490477832009 L 5.220295165833666 0.0213653506672582 Q 5.305756568502697 0.024926242445134417 5.371633066393408 0.024926242445134417 Q 5.419705105394739 0.024926242445134417 5.501605616285893 0.0213653506672582 L 5.5995301401774915 0.01958490477832009 Q 5.604871477844306 0.01958490477832009 5.604871477844306 0.030267580111948966 Q 5.604871477844306 0.04095025544557784 5.5995301401774915 0.04095025544557784 Q 5.535434088175718 0.04095025544557784 5.506056731008239 0.050742707834737555 Q 5.476679373840759 0.06053516022389749 5.46599669850713 0.08546140266903146 Q 5.455314023173502 0.11038764511416566 5.455314023173502 0.16380102178231004 L 5.455314023173502 0.9881474683606727 Q 5.455314023173502 1.0415608450288172 5.46599669850713 1.0673773104184203 Q 5.476679373840759 1.0931937758080235 5.506056731008239 1.1020960052527142 Q 5.535434088175718 1.110998234697405 5.5995301401774915 1.110998234697405 Q 5.604871477844306 1.110998234697405 5.604871477844306 1.1216809100310339 M 6.992771646830459 1.447502507706715 Q 6.995442315663865 1.4564047371514057 6.99188142388599 1.4581851830403438 Q 6.911761358883773 1.4795505337076018 6.845884860993062 1.4795505337076018 Q 6.714131865211638 1.4795505337076018 6.570805971152117 1.3931989080941016 Q 6.427480077092596 1.3068472824806012 6.324214215534184 1.1537289360319205 L 6.309970648422679 1.1537289360319205 Q 6.144389180751431 1.1537289360319205 6.015306853803415 1.076279539863111 Q 5.8862245268554 0.9988301436943017 5.815896914242343 0.8661869249684095 Q 5.745569301629286 0.7335437062425175 5.745569301629286 0.5768644680159605 Q 5.745569301629286 0.3934785414553311 5.838152487854069 0.2626157686183772 Q 5.9307356740788535 0.1317529957814234 6.075842014027312 0.06587649789071182 Q 6.220948353975771 4.440892098500626e-16 6.3722862545355135 4.440892098500626e-16 Q 6.541428613984638 4.440892098500626e-16 6.669620717988185 0.07922984205774797 Q 6.797812821991731 0.1584596841154956 6.86635998871585 0.28843223400798035 Q 6.934907155439969 0.4184047839004652 6.934907155439969 0.5644013467933934 Q 6.934907155439969 0.6908130049080019 6.881493778771825 0.8038713188555744 Q 6.82808040210368 0.9169296328031468 6.733716769989958 0.9979399207498325 Q 6.6393531378762365 1.0789502086965184 6.518282817428442 1.1199004641420958 Q 6.589500652985968 1.2605556893682095 6.7043394128224785 1.352248652648524 Q 6.819178172658989 1.4439416159288387 6.922444034217402 1.4439416159288387 Q 6.952711614329351 1.4439416159288387 6.984759640330237 1.4403807241509625 Q 6.990100977997051 1.4386002782620242 6.992771646830459 1.447502507706715 M 5.992161057247219 0.8190051089115487 Q 6.048245102748771 0.9560994423597861 6.1470598495848385 1.0335488385285956 Q 6.245874596420905 1.110998234697405 6.370505808646576 1.110998234697405 Q 6.477332561982864 1.110998234697405 6.561903741707427 1.0531337433069152 Q 6.646474921431989 0.9952692519164253 6.695437183377788 0.8831011609133219 Q 6.744399445323587 0.7709330699102186 6.744399445323587 0.6160342775725997 Q 6.744399445323587 0.45223325579029006 6.690095845710974 0.3222607058978052 Q 6.63579224609836 0.19228815600532034 6.535197053373355 0.1192898745588562 Q 6.434601860648349 0.04629159311239217 6.29928797308905 0.04629159311239217 Q 6.1265847218620495 0.04629159311239217 6.0313308668038585 0.17003258239359353 Q 5.936077011745668 0.2937735716747948 5.936077011745668 0.5127684160141871 Q 5.936077011745668 0.6819107754633111 5.992161057247219 0.8190051089115487" fill="#ffffff" fill-rule="nonzero"></path></g><g><path d=" M 0.76275 2.3873627618719486 Q 0.76275 2.391862761871949 0.7605000000000001 2.391862761871949 Q 0.7425 2.391862761871949 0.7312500000000001 2.3911127618719488 L 0.6900000000000001 2.3903627618719487 L 0.648 2.3911127618719488 Q 0.6375000000000001 2.391862761871949 0.61875 2.391862761871949 Q 0.61725 2.391862761871949 0.61725 2.3873627618719486 Q 0.61725 2.382862761871949 0.61875 2.382862761871949 Q 0.6465 2.382862761871949 0.6555 2.372737761871949 Q 0.6645 2.3626127618719486 0.6645 2.3311127618719487 L 0.6645 2.2156127618719488 Q 0.6645 2.172112761871949 0.648 2.151487761871949 Q 0.6315000000000001 2.1308627618719487 0.59775 2.1308627618719487 Q 0.5760000000000001 2.1308627618719487 0.553875 2.1417377618719486 Q 0.5317500000000001 2.1526127618719486 0.51375 2.171362761871949 L 0.51375 2.3311127618719487 Q 0.51375 2.3626127618719486 0.522375 2.372737761871949 Q 0.531 2.382862761871949 0.55875 2.382862761871949 Q 0.561 2.382862761871949 0.561 2.3873627618719486 Q 0.561 2.391862761871949 0.55875 2.391862761871949 Q 0.5407500000000001 2.391862761871949 0.5295 2.3911127618719488 L 0.48825 2.3903627618719487 L 0.44625000000000004 2.3911127618719488 Q 0.43575 2.391862761871949 0.417 2.391862761871949 Q 0.41550000000000004 2.391862761871949 0.41550000000000004 2.3873627618719486 Q 0.41550000000000004 2.382862761871949 0.417 2.382862761871949 Q 0.44475000000000003 2.382862761871949 0.45375 2.372737761871949 Q 0.46275 2.3626127618719486 0.46275 2.3311127618719487 L 0.46275 1.9478627618719488 Q 0.46275 1.937362761871949 0.45075 1.937362761871949 L 0.3315 1.937362761871949 Q 0.30375 1.937362761871949 0.29175 1.9407377618719488 Q 0.27975 1.9441127618719487 0.27525 1.9538627618719488 Q 0.27075 1.9636127618719488 0.27075 1.9853627618719487 L 0.27075 2.3311127618719487 Q 0.27075 2.3543627618719487 0.275625 2.3648627618719487 Q 0.2805 2.3753627618719486 0.29475 2.3791127618719488 Q 0.309 2.382862761871949 0.3405 2.382862761871949 Q 0.342 2.382862761871949 0.342 2.3873627618719486 Q 0.342 2.391862761871949 0.3405 2.391862761871949 Q 0.31425000000000003 2.391862761871949 0.29925 2.3911127618719488 L 0.24 2.3903627618719487 L 0.18225 2.3911127618719488 Q 0.16725 2.391862761871949 0.14025 2.391862761871949 Q 0.138 2.391862761871949 0.138 2.3873627618719486 Q 0.138 2.382862761871949 0.14025 2.382862761871949 Q 0.171 2.382862761871949 0.18525 2.3791127618719488 Q 0.1995 2.3753627618719486 0.20475000000000002 2.3644877618719486 Q 0.21 2.3536127618719487 0.21 2.3311127618719487 L 0.21 1.9838627618719489 Q 0.21 1.9621127618719487 0.20550000000000002 1.9527377618719488 Q 0.201 1.9433627618719487 0.189 1.9403627618719488 Q 0.177 1.937362761871949 0.14925 1.937362761871949 Q 0.10275000000000001 1.937362761871949 0.0765 1.9636127618719488 Q 0.05025 1.9898627618719487 0.0375 2.0468627618719486 Q 0.03675 2.0483627618719487 0.032625 2.0483627618719487 Q 0.0285 2.0483627618719487 0.0285 2.0468627618719486 Q 0.0315 2.0251127618719487 0.035250000000000004 1.9778627618719486 Q 0.039 1.9306127618719489 0.039 1.9066127618719488 Q 0.039 1.902862761871949 0.043500000000000004 1.902862761871949 Q 0.048 1.902862761871949 0.048 1.9066127618719488 Q 0.048 1.9231127618719488 0.08925 1.9231127618719488 Q 0.132 1.9246127618719489 0.24 1.9246127618719489 Q 0.34950000000000003 1.9246127618719489 0.38475 1.9231127618719488 Q 0.4305 1.9216127618719487 0.46125 1.9017377618719489 Q 0.492 1.8818627618719488 0.5025000000000001 1.8481127618719486 Q 0.5025000000000001 1.8458627618719488 0.50775 1.8458627618719488 Q 0.51 1.8458627618719488 0.511875 1.8466127618719488 Q 0.51375 1.8473627618719488 0.51375 1.8488627618719486 L 0.51375 2.157112761871949 Q 0.56775 2.0941127618719486 0.6285000000000001 2.0941127618719486 Q 0.6697500000000001 2.0941127618719486 0.692625 2.1184877618719486 Q 0.7155 2.1428627618719487 0.7155 2.1863627618719486 L 0.7155 2.3311127618719487 Q 0.7155 2.3626127618719486 0.724125 2.372737761871949 Q 0.73275 2.382862761871949 0.7605000000000001 2.382862761871949 Q 0.76275 2.382862761871949 0.76275 2.3873627618719486 M 1.0548724365234374 2.347612761871949 Q 1.0571224365234375 2.347612761871949 1.0589974365234376 2.350237761871949 Q 1.0608724365234377 2.3528627618719486 1.0593724365234376 2.3551127618719487 Q 1.0331224365234375 2.3791127618719488 1.0057474365234376 2.3899877618719487 Q 0.9783724365234375 2.4008627618719487 0.9468724365234376 2.4008627618719487 Q 0.9018724365234375 2.4008627618719487 0.8692474365234375 2.380987761871949 Q 0.8366224365234376 2.361112761871949 0.8197474365234375 2.3281127618719486 Q 0.8028724365234375 2.2951127618719487 0.8028724365234375 2.2568627618719486 Q 0.8028724365234375 2.2126127618719487 0.8242474365234376 2.1754877618719486 Q 0.8456224365234375 2.138362761871949 0.8834974365234376 2.1169877618719486 Q 0.9213724365234375 2.0956127618719487 0.9671224365234375 2.0956127618719487 Q 1.0091224365234375 2.0956127618719487 1.0323724365234375 2.115487761871949 Q 1.0556224365234375 2.135362761871949 1.0556224365234375 2.169862761871949 Q 1.0556224365234375 2.1886127618719486 1.0473724365234376 2.1886127618719486 L 1.0113724365234376 2.1886127618719486 L 0.8636224365234375 2.1901127618719487 Q 0.8606224365234375 2.205112761871949 0.8606224365234375 2.2268627618719488 Q 0.8606224365234375 2.291362761871949 0.8917474365234376 2.3311127618719487 Q 0.9228724365234375 2.370862761871949 0.9776224365234376 2.370862761871949 Q 1.0211224365234375 2.370862761871949 1.0541224365234376 2.347612761871949 L 1.0548724365234374 2.347612761871949 M 0.8936224365234375 2.128237761871949 Q 0.8741224365234376 2.145862761871949 0.8658724365234376 2.1781127618719487 L 0.9948724365234376 2.175112761871949 Q 0.9941224365234376 2.1451127618719488 0.9798724365234376 2.127862761871949 Q 0.9656224365234376 2.110612761871949 0.9408724365234375 2.110612761871949 Q 0.9131224365234376 2.110612761871949 0.8936224365234375 2.128237761871949 M 1.8086370849609377 2.3873627618719486 Q 1.8086370849609377 2.391862761871949 1.8063870849609378 2.391862761871949 Q 1.7823870849609378 2.391862761871949 1.7681370849609377 2.3911127618719488 L 1.7141370849609376 2.3903627618719487 L 1.6548870849609376 2.3911127618719488 Q 1.6421370849609376 2.391862761871949 1.6196370849609376 2.391862761871949 Q 1.6173870849609377 2.391862761871949 1.6173870849609377 2.3873627618719486 Q 1.6173870849609377 2.382862761871949 1.6196370849609376 2.382862761871949 Q 1.6481370849609376 2.382862761871949 1.6616370849609376 2.3791127618719488 Q 1.6751370849609377 2.3753627618719486 1.6796370849609377 2.3644877618719486 Q 1.6841370849609376 2.3536127618719487 1.6841370849609376 2.3311127618719487 L 1.6841370849609376 2.1563627618719488 L 1.4111370849609377 2.1563627618719488 L 1.4111370849609377 2.3311127618719487 Q 1.4111370849609377 2.3536127618719487 1.4156370849609377 2.3644877618719486 Q 1.4201370849609376 2.3753627618719486 1.4336370849609377 2.3791127618719488 Q 1.4471370849609375 2.382862761871949 1.4756370849609377 2.382862761871949 Q 1.4771370849609375 2.382862761871949 1.4771370849609375 2.3873627618719486 Q 1.4771370849609375 2.391862761871949 1.4756370849609377 2.391862761871949 Q 1.4516370849609377 2.391862761871949 1.4373870849609376 2.3911127618719488 L 1.3796370849609376 2.3903627618719487 L 1.3263870849609376 2.3911127618719488 Q 1.3121370849609377 2.391862761871949 1.2873870849609377 2.391862761871949 Q 1.2858870849609376 2.391862761871949 1.2858870849609376 2.3873627618719486 Q 1.2858870849609376 2.382862761871949 1.2873870849609377 2.382862761871949 Q 1.3151370849609376 2.382862761871949 1.3282620849609377 2.3791127618719488 Q 1.3413870849609377 2.3753627618719486 1.3462620849609377 2.3644877618719486 Q 1.3511370849609377 2.3536127618719487 1.3511370849609377 2.3311127618719487 L 1.3511370849609377 1.9838627618719489 Q 1.3511370849609377 1.961362761871949 1.3466370849609377 1.9508627618719487 Q 1.3421370849609375 1.9403627618719488 1.3293870849609377 1.9362377618719488 Q 1.3166370849609377 1.9321127618719487 1.2888870849609377 1.9321127618719487 Q 1.2866370849609376 1.9321127618719487 1.2866370849609376 1.9276127618719487 Q 1.2866370849609376 1.9231127618719488 1.2888870849609377 1.9231127618719488 L 1.3271370849609376 1.9238627618719488 Q 1.3586370849609377 1.9253627618719489 1.3796370849609376 1.9253627618719489 Q 1.4036370849609376 1.9253627618719489 1.4381370849609376 1.9238627618719488 L 1.4756370849609377 1.9231127618719488 Q 1.4771370849609375 1.9231127618719488 1.4771370849609375 1.9276127618719487 Q 1.4771370849609375 1.9321127618719487 1.4756370849609377 1.9321127618719487 Q 1.4478870849609375 1.9321127618719487 1.4343870849609377 1.9366127618719489 Q 1.4208870849609376 1.9411127618719488 1.4160120849609377 1.9519877618719488 Q 1.4111370849609377 1.9628627618719487 1.4111370849609377 1.9853627618719487 L 1.4111370849609377 2.1391127618719485 L 1.6841370849609376 2.1391127618719485 L 1.6841370849609376 1.9853627618719487 Q 1.6841370849609376 1.9628627618719487 1.6792620849609377 1.9519877618719488 Q 1.6743870849609377 1.9411127618719488 1.6612620849609376 1.9366127618719489 Q 1.6481370849609376 1.9321127618719487 1.6196370849609376 1.9321127618719487 Q 1.6173870849609377 1.9321127618719487 1.6173870849609377 1.9276127618719487 Q 1.6173870849609377 1.9231127618719488 1.6196370849609376 1.9231127618719488 L 1.6548870849609376 1.9238627618719488 Q 1.6893870849609376 1.9253627618719489 1.7141370849609376 1.9253627618719489 Q 1.7351370849609378 1.9253627618719489 1.7681370849609377 1.9238627618719488 L 1.8063870849609378 1.9231127618719488 Q 1.8086370849609377 1.9231127618719488 1.8086370849609377 1.9276127618719487 Q 1.8086370849609377 1.9321127618719487 1.8063870849609378 1.9321127618719487 Q 1.7786370849609376 1.9321127618719487 1.7658870849609376 1.9362377618719488 Q 1.7531370849609376 1.9403627618719488 1.7482620849609376 1.9508627618719487 Q 1.7433870849609376 1.961362761871949 1.7433870849609376 1.9838627618719489 L 1.7433870849609376 2.3311127618719487 Q 1.7433870849609376 2.3536127618719487 1.7482620849609376 2.3644877618719486 Q 1.7531370849609376 2.3753627618719486 1.7658870849609376 2.3791127618719488 Q 1.7786370849609376 2.382862761871949 1.8063870849609378 2.382862761871949 Q 1.8086370849609377 2.382862761871949 1.8086370849609377 2.3873627618719486 M 2.1127518310546876 2.347612761871949 Q 2.1150018310546876 2.347612761871949 2.1168768310546877 2.350237761871949 Q 2.118751831054688 2.3528627618719486 2.1172518310546877 2.3551127618719487 Q 2.0910018310546876 2.3791127618719488 2.0636268310546875 2.3899877618719487 Q 2.0362518310546878 2.4008627618719487 2.004751831054688 2.4008627618719487 Q 1.9597518310546878 2.4008627618719487 1.9271268310546876 2.380987761871949 Q 1.8945018310546877 2.361112761871949 1.8776268310546878 2.3281127618719486 Q 1.8607518310546878 2.2951127618719487 1.8607518310546878 2.2568627618719486 Q 1.8607518310546878 2.2126127618719487 1.8821268310546877 2.1754877618719486 Q 1.9035018310546876 2.138362761871949 1.9413768310546877 2.1169877618719486 Q 1.9792518310546876 2.0956127618719487 2.025001831054688 2.0956127618719487 Q 2.0670018310546876 2.0956127618719487 2.0902518310546876 2.115487761871949 Q 2.1135018310546876 2.135362761871949 2.1135018310546876 2.169862761871949 Q 2.1135018310546876 2.1886127618719486 2.1052518310546877 2.1886127618719486 L 2.0692518310546877 2.1886127618719486 L 1.9215018310546876 2.1901127618719487 Q 1.9185018310546877 2.205112761871949 1.9185018310546877 2.2268627618719488 Q 1.9185018310546877 2.291362761871949 1.9496268310546876 2.3311127618719487 Q 1.9807518310546877 2.370862761871949 2.0355018310546877 2.370862761871949 Q 2.0790018310546876 2.370862761871949 2.1120018310546875 2.347612761871949 L 2.1127518310546876 2.347612761871949 M 1.9515018310546877 2.128237761871949 Q 1.9320018310546876 2.145862761871949 1.9237518310546877 2.1781127618719487 L 2.0527518310546875 2.175112761871949 Q 2.0520018310546875 2.1451127618719488 2.037751831054688 2.127862761871949 Q 2.0235018310546877 2.110612761871949 1.9987518310546877 2.110612761871949 Q 1.9710018310546877 2.110612761871949 1.9515018310546877 2.128237761871949 M 2.5023988037109377 2.346112761871949 Q 2.504648803710938 2.346112761871949 2.505773803710938 2.349862761871949 Q 2.506898803710938 2.3536127618719487 2.504648803710938 2.3543627618719487 L 2.412398803710938 2.3993627618719486 Q 2.410898803710938 2.4001127618719487 2.4086488037109377 2.4001127618719487 Q 2.402648803710938 2.4001127618719487 2.3962738037109377 2.383612761871949 Q 2.389898803710938 2.3671127618719487 2.388398803710938 2.3416127618719487 Q 2.3621488037109377 2.368612761871949 2.3351488037109376 2.384362761871949 Q 2.308148803710938 2.4001127618719487 2.2751488037109375 2.4001127618719487 Q 2.2286488037109375 2.4001127618719487 2.1971488037109377 2.3659877618719487 Q 2.165648803710938 2.3318627618719487 2.165648803710938 2.2703627618719486 Q 2.165648803710938 2.216362761871949 2.190773803710938 2.1758627618719486 Q 2.2158988037109375 2.135362761871949 2.2552738037109377 2.113987761871949 Q 2.294648803710938 2.0926127618719486 2.3358988037109376 2.0926127618719486 Q 2.375648803710938 2.0926127618719486 2.4086488037109377 2.114362761871949 Q 2.423648803710938 2.1068627618719487 2.4318988037109377 2.0948627618719486 Q 2.4326488037109377 2.0941127618719486 2.434148803710938 2.0941127618719486 Q 2.435648803710938 2.0941127618719486 2.437523803710938 2.0952377618719487 Q 2.4393988037109375 2.0963627618719487 2.4393988037109375 2.0971127618719487 L 2.4393988037109375 2.311612761871949 Q 2.4393988037109375 2.335612761871949 2.4450238037109377 2.346112761871949 Q 2.450648803710938 2.356612761871949 2.4641488037109376 2.356612761871949 Q 2.473898803710938 2.356612761871949 2.5008988037109376 2.346862761871949 L 2.5023988037109377 2.346112761871949 M 2.388398803710938 2.3288627618719486 L 2.388398803710938 2.172862761871949 Q 2.388398803710938 2.1451127618719488 2.367398803710938 2.126362761871949 Q 2.3463988037109376 2.1076127618719487 2.317148803710938 2.1076127618719487 Q 2.2751488037109375 2.1076127618719487 2.249648803710938 2.146612761871949 Q 2.224148803710938 2.185612761871949 2.224148803710938 2.2471127618719486 Q 2.224148803710938 2.303362761871949 2.2455238037109377 2.336737761871949 Q 2.2668988037109377 2.370112761871949 2.3043988037109377 2.370112761871949 Q 2.344148803710938 2.370112761871949 2.388398803710938 2.3288627618719486 M 2.887516479492188 2.346862761871949 Q 2.889766479492188 2.346862761871949 2.8912664794921876 2.350612761871949 Q 2.8927664794921877 2.3543627618719487 2.8905164794921876 2.3558627618719488 L 2.8012664794921878 2.3986127618719486 Q 2.7967664794921876 2.4001127618719487 2.796016479492188 2.4001127618719487 Q 2.7870164794921877 2.4001127618719487 2.780266479492188 2.384362761871949 Q 2.7735164794921876 2.368612761871949 2.7727664794921876 2.3408627618719486 Q 2.745766479492188 2.368612761871949 2.7165164794921877 2.385112761871949 Q 2.687266479492188 2.4016127618719487 2.651266479492188 2.4016127618719487 Q 2.6197664794921875 2.4016127618719487 2.592766479492188 2.383987761871949 Q 2.5657664794921877 2.3663627618719487 2.5500164794921876 2.333362761871949 Q 2.534266479492188 2.300362761871949 2.534266479492188 2.2576127618719486 Q 2.534266479492188 2.2028627618719487 2.560516479492188 2.1657377618719487 Q 2.5867664794921876 2.128612761871949 2.626141479492188 2.110612761871949 Q 2.665516479492188 2.0926127618719486 2.7052664794921877 2.0926127618719486 Q 2.7397664794921877 2.0926127618719486 2.7727664794921876 2.1083627618719487 L 2.7727664794921876 1.9463627618719488 Q 2.7727664794921876 1.9186127618719488 2.767516479492188 1.9069877618719488 Q 2.7622664794921876 1.8953627618719489 2.7487664794921876 1.8953627618719489 Q 2.7390164794921876 1.8953627618719489 2.7165164794921877 1.9058627618719488 L 2.7157664794921876 1.9058627618719488 Q 2.712766479492188 1.9058627618719488 2.711266479492188 1.9021127618719489 Q 2.709766479492188 1.8983627618719487 2.712016479492188 1.8968627618719487 L 2.8117664794921877 1.8488627618719486 Q 2.8132664794921878 1.8481127618719486 2.815516479492188 1.8481127618719486 Q 2.817766479492188 1.8481127618719486 2.8211414794921876 1.8503627618719487 Q 2.8245164794921878 1.8526127618719488 2.8245164794921878 1.855612761871949 L 2.8245164794921878 2.3078627618719487 Q 2.8245164794921878 2.334112761871949 2.8301414794921875 2.345737761871949 Q 2.8357664794921877 2.357362761871949 2.849266479492188 2.357362761871949 Q 2.8665164794921876 2.357362761871949 2.886016479492188 2.347612761871949 L 2.887516479492188 2.346862761871949 M 2.7307664794921878 2.359987761871949 Q 2.7517664794921877 2.348362761871949 2.7727664794921876 2.3273627618719486 L 2.7727664794921876 2.1556127618719487 Q 2.757016479492188 2.1331127618719488 2.7363914794921875 2.1211127618719487 Q 2.7157664794921876 2.1091127618719487 2.688016479492188 2.1091127618719487 Q 2.6430164794921875 2.1091127618719487 2.617516479492188 2.1406127618719486 Q 2.592016479492188 2.172112761871949 2.592016479492188 2.2343627618719486 Q 2.592016479492188 2.2973627618719488 2.617891479492188 2.334487761871949 Q 2.6437664794921876 2.371612761871949 2.6842664794921878 2.371612761871949 Q 2.709766479492188 2.371612761871949 2.7307664794921878 2.359987761871949 M 3.9941660156250003 2.549362761871949 Q 3.9952910156250003 2.5531127618719487 3.9937910156250003 2.5538627618719487 Q 3.9502910156250004 2.5636127618719486 3.9022910156250004 2.5636127618719486 Q 3.7762910156250005 2.5636127618719486 3.6435410156250003 2.5178627618719487 Q 3.510791015625 2.4721127618719487 3.394541015625 2.396362761871949 Q 3.369791015625 2.4008627618719487 3.3442910156250005 2.4008627618719487 Q 3.2745410156250006 2.4008627618719487 3.2201660156250003 2.368237761871949 Q 3.1657910156250004 2.335612761871949 3.136166015625 2.279737761871949 Q 3.1065410156250004 2.2238627618719486 3.1065410156250004 2.157862761871949 Q 3.1065410156250004 2.080612761871949 3.1455410156250005 2.0254877618719487 Q 3.1845410156250002 1.9703627618719488 3.2456660156250003 1.9426127618719489 Q 3.3067910156250004 1.9148627618719487 3.370541015625 1.9148627618719487 Q 3.4417910156250002 1.9148627618719487 3.4957910156250005 1.9482377618719489 Q 3.5497910156250003 1.9816127618719488 3.578666015625 2.0363627618719486 Q 3.6075410156250003 2.091112761871949 3.6075410156250003 2.1526127618719486 Q 3.6075410156250003 2.2238627618719486 3.5685410156250006 2.2827377618719487 Q 3.5295410156250004 2.3416127618719487 3.4657910156250002 2.372362761871949 Q 3.5550410156250005 2.4338627618719486 3.6817910156250004 2.4919877618719486 Q 3.8085410156250004 2.550112761871949 3.9472910156250003 2.550112761871949 Q 3.9720410156250003 2.550112761871949 3.9907910156250006 2.546362761871949 Q 3.9930410156250002 2.545612761871949 3.9941660156250003 2.549362761871949 M 3.1995410156250004 2.2606127618719487 Q 3.2242910156250004 2.3183627618719487 3.2689160156250003 2.3513627618719486 Q 3.3135410156250003 2.384362761871949 3.370541015625 2.384362761871949 Q 3.4185410156250002 2.384362761871949 3.4567910156250004 2.359612761871949 Q 3.4950410156250005 2.334862761871949 3.5171660156250004 2.287237761871949 Q 3.5392910156250004 2.239612761871949 3.5392910156250004 2.173612761871949 Q 3.5392910156250004 2.103862761871949 3.5149160156250003 2.0491127618719487 Q 3.4905410156250003 1.9943627618719488 3.4451660156250004 1.9636127618719488 Q 3.3997910156250004 1.9328627618719487 3.3397910156250004 1.9328627618719487 Q 3.2617910156250005 1.9328627618719487 3.218291015625 1.9857377618719487 Q 3.1747910156250003 2.0386127618719487 3.1747910156250003 2.1316127618719487 Q 3.1747910156250003 2.2028627618719487 3.1995410156250004 2.2606127618719487 M 4.012909423828125 2.346862761871949 Q 4.015909423828125 2.346862761871949 4.017409423828125 2.350237761871949 Q 4.018909423828125 2.3536127618719487 4.016659423828125 2.3551127618719487 L 3.9236594238281253 2.3993627618719486 Q 3.922159423828125 2.4001127618719487 3.9199094238281256 2.4001127618719487 Q 3.9131594238281253 2.4001127618719487 3.9064094238281255 2.382487761871949 Q 3.8996594238281252 2.3648627618719487 3.8996594238281252 2.336362761871949 Q 3.8441594238281254 2.3986127618719486 3.7841594238281253 2.3986127618719486 Q 3.745909423828125 2.3986127618719486 3.7237844238281252 2.3742377618719486 Q 3.7016594238281253 2.349862761871949 3.7016594238281253 2.3063627618719487 L 3.7016594238281253 2.193112761871949 Q 3.7016594238281253 2.1646127618719486 3.6964094238281255 2.1522377618719486 Q 3.6911594238281253 2.1398627618719486 3.6791594238281253 2.1398627618719486 Q 3.6686594238281254 2.1398627618719486 3.6559094238281253 2.145862761871949 L 3.6544094238281253 2.145862761871949 Q 3.652159423828125 2.145862761871949 3.6510344238281256 2.1421127618719487 Q 3.6499094238281256 2.138362761871949 3.652159423828125 2.137612761871949 L 3.7406594238281254 2.0963627618719487 L 3.7436594238281256 2.0956127618719487 Q 3.7466594238281252 2.0956127618719487 3.7496594238281253 2.0978627618719488 Q 3.7526594238281255 2.100112761871949 3.7526594238281255 2.103112761871949 L 3.7526594238281255 2.277862761871949 Q 3.7526594238281255 2.3626127618719486 3.8156594238281256 2.3626127618719486 Q 3.8366594238281255 2.3626127618719486 3.8591594238281255 2.3521127618719486 Q 3.8816594238281255 2.3416127618719487 3.8996594238281252 2.322862761871949 L 3.8996594238281252 2.193112761871949 Q 3.8996594238281252 2.1646127618719486 3.8944094238281255 2.1522377618719486 Q 3.8891594238281253 2.1398627618719486 3.8771594238281253 2.1398627618719486 Q 3.8674094238281254 2.1398627618719486 3.8531594238281253 2.145862761871949 L 3.851659423828125 2.145862761871949 Q 3.8494094238281256 2.145862761871949 3.8486594238281255 2.1421127618719487 Q 3.8479094238281255 2.138362761871949 3.8501594238281256 2.137612761871949 L 3.9386594238281254 2.0963627618719487 L 3.9416594238281255 2.0956127618719487 Q 3.944659423828125 2.0956127618719487 3.9476594238281253 2.0978627618719488 Q 3.9506594238281254 2.100112761871949 3.9506594238281254 2.103112761871949 L 3.9506594238281254 2.3093627618719488 Q 3.9506594238281254 2.334862761871949 3.9562844238281256 2.346112761871949 Q 3.9619094238281254 2.357362761871949 3.9754094238281255 2.357362761871949 Q 3.9874094238281255 2.357362761871949 4.012159423828125 2.346862761871949 L 4.012909423828125 2.346862761871949 M 4.3822913818359375 2.346112761871949 Q 4.384541381835938 2.346112761871949 4.385666381835938 2.349862761871949 Q 4.386791381835938 2.3536127618719487 4.384541381835938 2.3543627618719487 L 4.292291381835938 2.3993627618719486 Q 4.290791381835938 2.4001127618719487 4.2885413818359375 2.4001127618719487 Q 4.282541381835938 2.4001127618719487 4.276166381835938 2.383612761871949 Q 4.269791381835938 2.3671127618719487 4.268291381835938 2.3416127618719487 Q 4.2420413818359375 2.368612761871949 4.215041381835938 2.384362761871949 Q 4.188041381835938 2.4001127618719487 4.155041381835938 2.4001127618719487 Q 4.108541381835938 2.4001127618719487 4.077041381835938 2.3659877618719487 Q 4.045541381835938 2.3318627618719487 4.045541381835938 2.2703627618719486 Q 4.045541381835938 2.216362761871949 4.070666381835938 2.1758627618719486 Q 4.095791381835938 2.135362761871949 4.135166381835938 2.113987761871949 Q 4.174541381835938 2.0926127618719486 4.215791381835938 2.0926127618719486 Q 4.255541381835938 2.0926127618719486 4.2885413818359375 2.114362761871949 Q 4.303541381835938 2.1068627618719487 4.311791381835938 2.0948627618719486 Q 4.312541381835938 2.0941127618719486 4.3140413818359375 2.0941127618719486 Q 4.315541381835938 2.0941127618719486 4.317416381835938 2.0952377618719487 Q 4.319291381835938 2.0963627618719487 4.319291381835938 2.0971127618719487 L 4.319291381835938 2.311612761871949 Q 4.319291381835938 2.335612761871949 4.324916381835938 2.346112761871949 Q 4.330541381835938 2.356612761871949 4.344041381835938 2.356612761871949 Q 4.353791381835938 2.356612761871949 4.380791381835938 2.346862761871949 L 4.3822913818359375 2.346112761871949 M 4.268291381835938 2.3288627618719486 L 4.268291381835938 2.172862761871949 Q 4.268291381835938 2.1451127618719488 4.247291381835938 2.126362761871949 Q 4.226291381835938 2.1076127618719487 4.197041381835938 2.1076127618719487 Q 4.155041381835938 2.1076127618719487 4.129541381835938 2.146612761871949 Q 4.104041381835938 2.185612761871949 4.104041381835938 2.2471127618719486 Q 4.104041381835938 2.303362761871949 4.1254163818359375 2.336737761871949 Q 4.146791381835938 2.370112761871949 4.184291381835938 2.370112761871949 Q 4.224041381835938 2.370112761871949 4.268291381835938 2.3288627618719486 M 4.632409057617188 2.1057377618719486 Q 4.647409057617188 2.1158627618719485 4.647409057617188 2.1301127618719486 Q 4.647409057617188 2.1413627618719486 4.639909057617188 2.149237761871949 Q 4.632409057617188 2.157112761871949 4.619659057617188 2.157112761871949 Q 4.612159057617188 2.157112761871949 4.606909057617188 2.1544877618719487 Q 4.601659057617188 2.151862761871949 4.597909057617188 2.148487761871949 Q 4.594159057617188 2.1451127618719488 4.592659057617188 2.1443627618719487 Q 4.586659057617188 2.138362761871949 4.581034057617188 2.134987761871949 Q 4.575409057617188 2.1316127618719487 4.567159057617188 2.1316127618719487 Q 4.558159057617188 2.1316127618719487 4.547659057617188 2.138737761871949 Q 4.537159057617188 2.145862761871949 4.516159057617188 2.169862761871949 L 4.516159057617188 2.3311127618719487 Q 4.516159057617188 2.3528627618719486 4.521784057617188 2.3637377618719486 Q 4.527409057617188 2.3746127618719486 4.542409057617188 2.3787377618719487 Q 4.557409057617188 2.382862761871949 4.587409057617188 2.382862761871949 Q 4.589659057617188 2.382862761871949 4.589659057617188 2.3873627618719486 Q 4.589659057617188 2.391862761871949 4.587409057617188 2.391862761871949 Q 4.562659057617188 2.391862761871949 4.547659057617188 2.3911127618719488 L 4.490659057617188 2.3903627618719487 L 4.448659057617188 2.3911127618719488 Q 4.438159057617188 2.391862761871949 4.420159057617188 2.391862761871949 Q 4.417909057617188 2.391862761871949 4.417909057617188 2.3873627618719486 Q 4.417909057617188 2.382862761871949 4.420159057617188 2.382862761871949 Q 4.4471590576171875 2.382862761871949 4.455784057617188 2.372737761871949 Q 4.464409057617188 2.3626127618719486 4.464409057617188 2.3311127618719487 L 4.464409057617188 2.184862761871949 Q 4.464409057617188 2.160112761871949 4.458784057617188 2.149237761871949 Q 4.453159057617188 2.138362761871949 4.439659057617188 2.138362761871949 Q 4.425409057617188 2.138362761871949 4.3999090576171875 2.148862761871949 L 4.398409057617188 2.148862761871949 Q 4.396159057617188 2.148862761871949 4.395034057617188 2.1451127618719488 Q 4.393909057617188 2.1413627618719486 4.396159057617188 2.1406127618719486 L 4.489159057617188 2.0963627618719487 Q 4.490659057617188 2.0956127618719487 4.4936590576171875 2.0956127618719487 Q 4.501159057617188 2.0956127618719487 4.508284057617188 2.112112761871949 Q 4.515409057617188 2.128612761871949 4.516159057617188 2.1556127618719487 Q 4.546909057617188 2.1211127618719487 4.565284057617188 2.1083627618719487 Q 4.583659057617188 2.0956127618719487 4.600159057617188 2.0956127618719487 Q 4.617409057617188 2.0956127618719487 4.632409057617188 2.1057377618719486 M 4.902047973632813 2.348362761871949 Q 4.905047973632813 2.348362761871949 4.906547973632813 2.3517377618719486 Q 4.908047973632813 2.3551127618719487 4.905797973632813 2.356612761871949 Q 4.878047973632813 2.379862761871949 4.854797973632813 2.3903627618719487 Q 4.831547973632813 2.4008627618719487 4.806047973632813 2.4008627618719487 Q 4.774547973632813 2.4008627618719487 4.753172973632813 2.3862377618719486 Q 4.731797973632813 2.371612761871949 4.731797973632813 2.337112761871949 L 4.731797973632813 2.1638627618719486 Q 4.731797973632813 2.137612761871949 4.724672973632813 2.1301127618719486 Q 4.717547973632813 2.122612761871949 4.692797973632813 2.122612761871949 Q 4.690547973632813 2.122612761871949 4.690547973632813 2.1166127618719486 Q 4.690547973632813 2.111362761871949 4.692797973632813 2.111362761871949 Q 4.725797973632813 2.110612761871949 4.746047973632813 2.0952377618719487 Q 4.766297973632813 2.079862761871949 4.772297973632813 2.052862761871949 Q 4.773047973632813 2.0506127618719487 4.778297973632813 2.0506127618719487 Q 4.783547973632813 2.0506127618719487 4.783547973632813 2.052862761871949 L 4.783547973632813 2.110612761871949 Q 4.820297973632813 2.1098627618719488 4.885547973632813 2.103112761871949 Q 4.887797973632813 2.103112761871949 4.889297973632813 2.1083627618719487 Q 4.890797973632813 2.113612761871949 4.890797973632813 2.1203627618719487 Q 4.890797973632813 2.127112761871949 4.888547973632813 2.1334877618719488 Q 4.886297973632813 2.1398627618719486 4.883297973632813 2.1391127618719485 Q 4.836047973632813 2.1293627618719486 4.783547973632813 2.127862761871949 L 4.783547973632813 2.311612761871949 Q 4.783547973632813 2.3416127618719487 4.798547973632813 2.3562377618719488 Q 4.813547973632813 2.370862761871949 4.8412979736328134 2.370862761871949 Q 4.874297973632813 2.370862761871949 4.900547973632813 2.349112761871949 L 4.902047973632813 2.348362761871949 M 5.198682495117188 2.347612761871949 Q 5.200932495117188 2.347612761871949 5.202807495117188 2.350237761871949 Q 5.204682495117188 2.3528627618719486 5.203182495117188 2.3551127618719487 Q 5.176932495117188 2.3791127618719488 5.149557495117188 2.3899877618719487 Q 5.122182495117188 2.4008627618719487 5.090682495117188 2.4008627618719487 Q 5.045682495117188 2.4008627618719487 5.013057495117188 2.380987761871949 Q 4.980432495117188 2.361112761871949 4.963557495117188 2.3281127618719486 Q 4.946682495117188 2.2951127618719487 4.946682495117188 2.2568627618719486 Q 4.946682495117188 2.2126127618719487 4.968057495117188 2.1754877618719486 Q 4.989432495117188 2.138362761871949 5.027307495117188 2.1169877618719486 Q 5.065182495117188 2.0956127618719487 5.110932495117188 2.0956127618719487 Q 5.152932495117188 2.0956127618719487 5.176182495117188 2.115487761871949 Q 5.199432495117188 2.135362761871949 5.199432495117188 2.169862761871949 Q 5.199432495117188 2.1886127618719486 5.191182495117188 2.1886127618719486 L 5.155182495117188 2.1886127618719486 L 5.007432495117188 2.1901127618719487 Q 5.004432495117188 2.205112761871949 5.004432495117188 2.2268627618719488 Q 5.004432495117188 2.291362761871949 5.035557495117188 2.3311127618719487 Q 5.066682495117188 2.370862761871949 5.121432495117188 2.370862761871949 Q 5.164932495117188 2.370862761871949 5.197932495117188 2.347612761871949 L 5.198682495117188 2.347612761871949 M 5.037432495117188 2.128237761871949 Q 5.017932495117188 2.145862761871949 5.009682495117188 2.1781127618719487 L 5.138682495117188 2.175112761871949 Q 5.137932495117188 2.1451127618719488 5.123682495117188 2.127862761871949 Q 5.109432495117188 2.110612761871949 5.084682495117188 2.110612761871949 Q 5.056932495117188 2.110612761871949 5.037432495117188 2.128237761871949 M 5.4743155517578135 2.1057377618719486 Q 5.489315551757813 2.1158627618719485 5.489315551757813 2.1301127618719486 Q 5.489315551757813 2.1413627618719486 5.481815551757813 2.149237761871949 Q 5.4743155517578135 2.157112761871949 5.461565551757813 2.157112761871949 Q 5.454065551757813 2.157112761871949 5.448815551757813 2.1544877618719487 Q 5.443565551757813 2.151862761871949 5.439815551757813 2.148487761871949 Q 5.436065551757813 2.1451127618719488 5.434565551757813 2.1443627618719487 Q 5.4285655517578135 2.138362761871949 5.422940551757813 2.134987761871949 Q 5.417315551757813 2.1316127618719487 5.409065551757813 2.1316127618719487 Q 5.400065551757813 2.1316127618719487 5.389565551757813 2.138737761871949 Q 5.379065551757813 2.145862761871949 5.3580655517578135 2.169862761871949 L 5.3580655517578135 2.3311127618719487 Q 5.3580655517578135 2.3528627618719486 5.363690551757813 2.3637377618719486 Q 5.369315551757813 2.3746127618719486 5.384315551757813 2.3787377618719487 Q 5.399315551757813 2.382862761871949 5.4293155517578136 2.382862761871949 Q 5.431565551757813 2.382862761871949 5.431565551757813 2.3873627618719486 Q 5.431565551757813 2.391862761871949 5.4293155517578136 2.391862761871949 Q 5.4045655517578135 2.391862761871949 5.389565551757813 2.3911127618719488 L 5.332565551757813 2.3903627618719487 L 5.290565551757813 2.3911127618719488 Q 5.280065551757813 2.391862761871949 5.262065551757813 2.391862761871949 Q 5.259815551757813 2.391862761871949 5.259815551757813 2.3873627618719486 Q 5.259815551757813 2.382862761871949 5.262065551757813 2.382862761871949 Q 5.289065551757813 2.382862761871949 5.297690551757813 2.372737761871949 Q 5.306315551757813 2.3626127618719486 5.306315551757813 2.3311127618719487 L 5.306315551757813 2.184862761871949 Q 5.306315551757813 2.160112761871949 5.300690551757813 2.149237761871949 Q 5.295065551757813 2.138362761871949 5.281565551757813 2.138362761871949 Q 5.267315551757813 2.138362761871949 5.241815551757813 2.148862761871949 L 5.2403155517578135 2.148862761871949 Q 5.238065551757813 2.148862761871949 5.236940551757813 2.1451127618719488 Q 5.235815551757813 2.1413627618719486 5.238065551757813 2.1406127618719486 L 5.331065551757813 2.0963627618719487 Q 5.332565551757813 2.0956127618719487 5.335565551757813 2.0956127618719487 Q 5.343065551757813 2.0956127618719487 5.350190551757813 2.112112761871949 Q 5.3573155517578135 2.128612761871949 5.3580655517578135 2.1556127618719487 Q 5.388815551757813 2.1211127618719487 5.407190551757813 2.1083627618719487 Q 5.425565551757813 2.0956127618719487 5.442065551757813 2.0956127618719487 Q 5.459315551757813 2.0956127618719487 5.4743155517578135 2.1057377618719486 M 5.781086059570313 2.380237761871949 Q 5.747336059570313 2.358862761871949 5.728961059570313 2.322487761871949 Q 5.710586059570313 2.286112761871949 5.710586059570313 2.243362761871949 Q 5.710586059570313 2.194612761871949 5.734586059570313 2.160487761871949 Q 5.758586059570313 2.126362761871949 5.796086059570313 2.1094877618719488 Q 5.8335860595703135 2.0926127618719486 5.872586059570313 2.0926127618719486 Q 5.916836059570313 2.0926127618719486 5.9505860595703135 2.114362761871949 Q 5.984336059570313 2.136112761871949 6.002336059570313 2.171737761871949 Q 6.0203360595703135 2.207362761871949 6.0203360595703135 2.2471127618719486 Q 6.0203360595703135 2.2928627618719486 5.9982110595703135 2.3281127618719486 Q 5.976086059570314 2.3633627618719486 5.939336059570313 2.382487761871949 Q 5.9025860595703135 2.4016127618719487 5.859086059570314 2.4016127618719487 Q 5.814836059570313 2.4016127618719487 5.781086059570313 2.380237761871949 M 5.938586059570313 2.358112761871949 Q 5.958836059570313 2.3288627618719486 5.958836059570313 2.2703627618719486 Q 5.958836059570313 2.221612761871949 5.944211059570313 2.184487761871949 Q 5.929586059570314 2.147362761871949 5.9040860595703135 2.127487761871949 Q 5.878586059570313 2.1076127618719487 5.847086059570313 2.1076127618719487 Q 5.8103360595703135 2.1076127618719487 5.790461059570313 2.135737761871949 Q 5.770586059570313 2.1638627618719486 5.770586059570313 2.218612761871949 Q 5.770586059570313 2.265862761871949 5.784836059570313 2.3044877618719486 Q 5.799086059570313 2.3431127618719487 5.824211059570313 2.3652377618719487 Q 5.849336059570313 2.3873627618719486 5.8808360595703135 2.3873627618719486 Q 5.918336059570313 2.3873627618719486 5.938586059570313 2.358112761871949 M 6.349957031250001 1.8589877618719488 Q 6.373957031250001 1.8706127618719488 6.373957031250001 1.8886127618719488 Q 6.373957031250001 1.9021127618719489 6.36495703125 1.9092377618719487 Q 6.355957031250001 1.9163627618719488 6.34395703125 1.9163627618719488 Q 6.331957031250001 1.9163627618719488 6.324832031250001 1.9107377618719488 Q 6.31770703125 1.9051127618719488 6.310207031250001 1.8931127618719488 Q 6.300457031250001 1.8773627618719488 6.288832031250001 1.8694877618719488 Q 6.277207031250001 1.8616127618719487 6.259207031250001 1.8616127618719487 Q 6.218707031250001 1.8616127618719487 6.194707031250001 1.9111127618719488 Q 6.170707031250001 1.9606127618719489 6.170707031250001 2.0626127618719488 L 6.170707031250001 2.110612761871949 Q 6.217957031250001 2.1083627618719487 6.262957031250001 2.103112761871949 Q 6.265207031250001 2.103112761871949 6.266707031250001 2.1083627618719487 Q 6.268207031250001 2.113612761871949 6.268207031250001 2.1203627618719487 Q 6.268207031250001 2.126362761871949 6.265582031250001 2.1331127618719488 Q 6.262957031250001 2.1398627618719486 6.260707031250001 2.1391127618719485 Q 6.218707031250001 2.1293627618719486 6.170707031250001 2.127862761871949 L 6.170707031250001 2.3311127618719487 Q 6.170707031250001 2.3543627618719487 6.17558203125 2.3648627618719487 Q 6.1804570312500005 2.3753627618719486 6.195457031250001 2.3791127618719488 Q 6.210457031250001 2.382862761871949 6.242707031250001 2.382862761871949 Q 6.244957031250001 2.382862761871949 6.244957031250001 2.3873627618719486 Q 6.244957031250001 2.391862761871949 6.242707031250001 2.391862761871949 L 6.192457031250001 2.3911127618719488 Q 6.17670703125 2.3903627618719487 6.144457031250001 2.3903627618719487 L 6.100957031250001 2.3911127618719488 Q 6.089707031250001 2.391862761871949 6.069457031250001 2.391862761871949 Q 6.067207031250001 2.391862761871949 6.067207031250001 2.3873627618719486 Q 6.067207031250001 2.382862761871949 6.069457031250001 2.382862761871949 Q 6.091207031250001 2.382862761871949 6.101332031250001 2.3791127618719488 Q 6.1114570312500005 2.3753627618719486 6.115207031250001 2.3644877618719486 Q 6.118957031250001 2.3536127618719487 6.118957031250001 2.3311127618719487 L 6.118957031250001 2.162362761871949 Q 6.118957031250001 2.1443627618719487 6.115207031250001 2.136112761871949 Q 6.1114570312500005 2.127862761871949 6.100957031250001 2.125237761871949 Q 6.090457031250001 2.122612761871949 6.066457031250001 2.122612761871949 Q 6.0642070312500005 2.122612761871949 6.0642070312500005 2.1173627618719486 Q 6.0642070312500005 2.112112761871949 6.066457031250001 2.112112761871949 Q 6.095707031250001 2.112112761871949 6.10658203125 2.104987761871949 Q 6.117457031250001 2.0978627618719488 6.118207031250001 2.078362761871949 Q 6.121957031250001 1.9561127618719487 6.163207031250001 1.9017377618719489 Q 6.2044570312500005 1.8473627618719488 6.286207031250001 1.8473627618719488 Q 6.325957031250001 1.8473627618719488 6.349957031250001 1.8589877618719488 M 6.583208129882813 2.056987761871949 Q 6.597458129882813 2.078362761871949 6.617708129882813 2.0937377618719486 Q 6.637958129882813 2.1091127618719487 6.673958129882814 2.1308627618719487 Q 6.711458129882813 2.1541127618719487 6.733583129882813 2.170987761871949 Q 6.755708129882813 2.1878627618719486 6.771458129882813 2.2126127618719487 Q 6.7872081298828135 2.2373627618719487 6.7872081298828135 2.2711127618719487 Q 6.7872081298828135 2.3078627618719487 6.768083129882814 2.337487761871949 Q 6.748958129882813 2.3671127618719487 6.713333129882813 2.383987761871949 Q 6.677708129882813 2.4008627618719487 6.630458129882813 2.4008627618719487 Q 6.6004581298828136 2.4008627618719487 6.571208129882813 2.393737761871949 Q 6.541958129882813 2.3866127618719486 6.520208129882813 2.373112761871949 Q 6.516458129882813 2.370862761871949 6.514958129882813 2.3678627618719488 Q 6.513458129882813 2.3648627618719487 6.513458129882813 2.358862761871949 L 6.5059581298828135 2.251612761871949 Q 6.5052081298828135 2.2486127618719487 6.509333129882814 2.2478627618719487 Q 6.513458129882813 2.2471127618719486 6.514208129882813 2.2501127618719488 Q 6.532208129882814 2.3071127618719487 6.564458129882813 2.346862761871949 Q 6.596708129882813 2.3866127618719486 6.648458129882814 2.3866127618719486 Q 6.683708129882813 2.3866127618719486 6.707333129882813 2.3674877618719488 Q 6.730958129882813 2.348362761871949 6.730958129882813 2.3048627618719486 Q 6.730958129882813 2.2718627618719487 6.7159581298828135 2.2471127618719486 Q 6.700958129882813 2.2223627618719486 6.679583129882813 2.205487761871949 Q 6.658208129882813 2.1886127618719486 6.6222081298828135 2.1668627618719487 Q 6.586958129882813 2.1443627618719487 6.566333129882813 2.128237761871949 Q 6.545708129882813 2.112112761871949 6.531458129882814 2.088487761871949 Q 6.517208129882813 2.064862761871949 6.517208129882813 2.033362761871949 Q 6.517208129882813 1.9951127618719489 6.537833129882813 1.9681127618719487 Q 6.558458129882814 1.9411127618719488 6.591833129882813 1.9279877618719488 Q 6.625208129882814 1.9148627618719487 6.661958129882813 1.9148627618719487 Q 6.712208129882813 1.9148627618719487 6.752708129882813 1.9321127618719487 Q 6.7639581298828135 1.9366127618719489 6.7639581298828135 1.9456127618719488 L 6.767708129882814 2.0393627618719488 Q 6.767708129882814 2.042362761871949 6.7639581298828135 2.043112761871949 Q 6.760208129882813 2.043862761871949 6.759458129882813 2.040862761871949 Q 6.751208129882813 2.0003627618719486 6.724208129882813 1.9639877618719488 Q 6.697208129882814 1.9276127618719487 6.647708129882814 1.9276127618719487 Q 6.610208129882813 1.9276127618719487 6.589583129882813 1.9501127618719487 Q 6.568958129882813 1.972612761871949 6.568958129882813 2.007112761871949 Q 6.568958129882813 2.0356127618719486 6.583208129882813 2.056987761871949 M 6.920725708007813 2.3794877618719488 Q 6.887350708007814 2.358112761871949 6.871225708007813 2.324362761871949 Q 6.8551007080078135 2.290612761871949 6.8551007080078135 2.253112761871949 Q 6.8551007080078135 2.205112761871949 6.8798507080078135 2.169487761871949 Q 6.904600708007814 2.133862761871949 6.943600708007813 2.114737761871949 Q 6.982600708007813 2.0956127618719487 7.023100708007814 2.0956127618719487 Q 7.056850708007813 2.0956127618719487 7.084600708007813 2.1094877618719488 Q 7.112350708007813 2.123362761871949 7.112350708007813 2.1443627618719487 Q 7.112350708007813 2.1556127618719487 7.104100708007813 2.1638627618719486 Q 7.095850708007814 2.172112761871949 7.081600708007813 2.172112761871949 Q 7.056850708007813 2.172112761871949 7.0441007080078135 2.1428627618719487 Q 7.035850708007813 2.125612761871949 7.026100708007814 2.1181127618719486 Q 7.016350708007813 2.110612761871949 6.9968507080078135 2.110612761871949 Q 6.957850708007813 2.110612761871949 6.935725708007813 2.1432377618719487 Q 6.913600708007813 2.1758627618719486 6.913600708007813 2.229862761871949 Q 6.913600708007813 2.292112761871949 6.943600708007813 2.3318627618719487 Q 6.9736007080078135 2.371612761871949 7.035850708007813 2.371612761871949 Q 7.077100708007813 2.371612761871949 7.110850708007813 2.348362761871949 L 7.112350708007813 2.348362761871949 Q 7.1146007080078135 2.348362761871949 7.116475708007814 2.350612761871949 Q 7.118350708007814 2.3528627618719486 7.116100708007814 2.3543627618719487 Q 7.0898507080078135 2.3783627618719487 7.062850708007813 2.3896127618719487 Q 7.035850708007813 2.4008627618719487 7.002850708007814 2.4008627618719487 Q 6.954100708007814 2.4008627618719487 6.920725708007813 2.3794877618719488 M 7.385709228515626 2.1057377618719486 Q 7.400709228515626 2.1158627618719485 7.400709228515626 2.1301127618719486 Q 7.400709228515626 2.1413627618719486 7.393209228515626 2.149237761871949 Q 7.385709228515626 2.157112761871949 7.372959228515626 2.157112761871949 Q 7.3654592285156255 2.157112761871949 7.360209228515626 2.1544877618719487 Q 7.354959228515626 2.151862761871949 7.351209228515626 2.148487761871949 Q 7.347459228515626 2.1451127618719488 7.345959228515626 2.1443627618719487 Q 7.339959228515626 2.138362761871949 7.334334228515626 2.134987761871949 Q 7.328709228515626 2.1316127618719487 7.320459228515626 2.1316127618719487 Q 7.311459228515626 2.1316127618719487 7.300959228515626 2.138737761871949 Q 7.290459228515626 2.145862761871949 7.269459228515626 2.169862761871949 L 7.269459228515626 2.3311127618719487 Q 7.269459228515626 2.3528627618719486 7.275084228515626 2.3637377618719486 Q 7.280709228515626 2.3746127618719486 7.2957092285156255 2.3787377618719487 Q 7.310709228515626 2.382862761871949 7.340709228515626 2.382862761871949 Q 7.3429592285156255 2.382862761871949 7.3429592285156255 2.3873627618719486 Q 7.3429592285156255 2.391862761871949 7.340709228515626 2.391862761871949 Q 7.315959228515626 2.391862761871949 7.300959228515626 2.3911127618719488 L 7.243959228515626 2.3903627618719487 L 7.2019592285156255 2.3911127618719488 Q 7.191459228515626 2.391862761871949 7.173459228515626 2.391862761871949 Q 7.171209228515626 2.391862761871949 7.171209228515626 2.3873627618719486 Q 7.171209228515626 2.382862761871949 7.173459228515626 2.382862761871949 Q 7.2004592285156255 2.382862761871949 7.209084228515626 2.372737761871949 Q 7.217709228515626 2.3626127618719486 7.217709228515626 2.3311127618719487 L 7.217709228515626 2.184862761871949 Q 7.217709228515626 2.160112761871949 7.212084228515626 2.149237761871949 Q 7.206459228515626 2.138362761871949 7.192959228515626 2.138362761871949 Q 7.1787092285156255 2.138362761871949 7.1532092285156255 2.148862761871949 L 7.151709228515626 2.148862761871949 Q 7.149459228515626 2.148862761871949 7.148334228515626 2.1451127618719488 Q 7.147209228515626 2.1413627618719486 7.149459228515626 2.1406127618719486 L 7.242459228515626 2.0963627618719487 Q 7.243959228515626 2.0956127618719487 7.2469592285156255 2.0956127618719487 Q 7.254459228515626 2.0956127618719487 7.261584228515626 2.112112761871949 Q 7.268709228515626 2.128612761871949 7.269459228515626 2.1556127618719487 Q 7.300209228515626 2.1211127618719487 7.3185842285156255 2.1083627618719487 Q 7.336959228515626 2.0956127618719487 7.353459228515626 2.0956127618719487 Q 7.370709228515626 2.0956127618719487 7.385709228515626 2.1057377618719486 M 7.494473144531251 2.0026127618719487 Q 7.484348144531251 1.9928627618719488 7.484348144531251 1.9756127618719488 Q 7.484348144531251 1.9591127618719488 7.494473144531251 1.949737761871949 Q 7.504598144531251 1.9403627618719488 7.521848144531251 1.9403627618719488 Q 7.538348144531251 1.9403627618719488 7.5477231445312505 1.949737761871949 Q 7.557098144531251 1.9591127618719488 7.557098144531251 1.9756127618719488 Q 7.557098144531251 1.9928627618719488 7.5477231445312505 2.0026127618719487 Q 7.538348144531251 2.0123627618719486 7.521848144531251 2.0123627618719486 Q 7.504598144531251 2.0123627618719486 7.494473144531251 2.0026127618719487 M 7.453598144531251 2.3873627618719486 Q 7.453598144531251 2.382862761871949 7.4558481445312506 2.382862761871949 Q 7.482848144531251 2.382862761871949 7.491848144531251 2.372737761871949 Q 7.500848144531251 2.3626127618719486 7.500848144531251 2.3311127618719487 L 7.500848144531251 2.193112761871949 Q 7.500848144531251 2.1661127618719487 7.495598144531251 2.1544877618719487 Q 7.490348144531251 2.1428627618719487 7.476848144531251 2.1428627618719487 Q 7.464098144531251 2.1428627618719487 7.444598144531251 2.1526127618719486 L 7.443848144531251 2.1526127618719486 Q 7.440848144531251 2.1526127618719486 7.439348144531251 2.148487761871949 Q 7.437848144531251 2.1443627618719487 7.440848144531251 2.1436127618719487 L 7.542848144531251 2.0963627618719487 L 7.545848144531251 2.0956127618719487 Q 7.5480981445312505 2.0956127618719487 7.550723144531251 2.0978627618719488 Q 7.553348144531251 2.100112761871949 7.553348144531251 2.103112761871949 Q 7.553348144531251 2.1083627618719487 7.552598144531251 2.1331127618719488 Q 7.551848144531251 2.157862761871949 7.551848144531251 2.1916127618719488 L 7.551848144531251 2.3311127618719487 Q 7.551848144531251 2.3626127618719486 7.560473144531251 2.372737761871949 Q 7.569098144531251 2.382862761871949 7.596848144531251 2.382862761871949 Q 7.599098144531251 2.382862761871949 7.599098144531251 2.3873627618719486 Q 7.599098144531251 2.391862761871949 7.596848144531251 2.391862761871949 Q 7.578848144531251 2.391862761871949 7.567598144531251 2.3911127618719488 L 7.526348144531251 2.3903627618719487 L 7.485098144531251 2.3911127618719488 Q 7.473848144531251 2.391862761871949 7.4558481445312506 2.391862761871949 Q 7.453598144531251 2.391862761871949 7.453598144531251 2.3873627618719486 M 7.920862792968751 2.1091127618719487 Q 7.947487792968751 2.125612761871949 7.9632377929687514 2.157112761871949 Q 7.978987792968751 2.1886127618719486 7.978987792968751 2.230612761871949 Q 7.978987792968751 2.288362761871949 7.953862792968751 2.326987761871949 Q 7.928737792968751 2.3656127618719487 7.891237792968751 2.383612761871949 Q 7.853737792968751 2.4016127618719487 7.816237792968751 2.4016127618719487 Q 7.794487792968751 2.4016127618719487 7.777612792968751 2.3982377618719486 Q 7.760737792968751 2.394862761871949 7.741987792968751 2.3866127618719486 L 7.741987792968751 2.537362761871949 Q 7.741987792968751 2.559862761871949 7.747237792968751 2.570362761871949 Q 7.752487792968751 2.580862761871949 7.767487792968751 2.5849877618719486 Q 7.782487792968751 2.5891127618719487 7.813987792968751 2.5891127618719487 Q 7.816237792968751 2.5891127618719487 7.816237792968751 2.593612761871949 Q 7.816237792968751 2.5981127618719486 7.813987792968751 2.5981127618719486 Q 7.787737792968751 2.5981127618719486 7.772737792968751 2.597362761871949 L 7.716487792968751 2.596612761871949 L 7.674487792968751 2.597362761871949 Q 7.663987792968751 2.5981127618719486 7.645237792968751 2.5981127618719486 Q 7.642987792968751 2.5981127618719486 7.642987792968751 2.593612761871949 Q 7.642987792968751 2.5891127618719487 7.645237792968751 2.5891127618719487 Q 7.664737792968751 2.5891127618719487 7.674487792968751 2.5849877618719486 Q 7.684237792968751 2.580862761871949 7.687612792968751 2.570362761871949 Q 7.690987792968751 2.559862761871949 7.690987792968751 2.537362761871949 L 7.690987792968751 2.1863627618719486 Q 7.690987792968751 2.160862761871949 7.684987792968751 2.149237761871949 Q 7.678987792968751 2.137612761871949 7.664737792968751 2.137612761871949 Q 7.650487792968751 2.137612761871949 7.626487792968751 2.148862761871949 L 7.625737792968751 2.148862761871949 Q 7.622737792968751 2.148862761871949 7.620862792968751 2.1451127618719488 Q 7.618987792968751 2.1413627618719486 7.621987792968751 2.1406127618719486 L 7.712737792968751 2.0971127618719487 L 7.717237792968751 2.0956127618719487 Q 7.726237792968751 2.0956127618719487 7.733362792968751 2.110612761871949 Q 7.740487792968751 2.125612761871949 7.741987792968751 2.151862761871949 Q 7.801237792968751 2.0926127618719486 7.862737792968751 2.0926127618719486 Q 7.894237792968751 2.0926127618719486 7.920862792968751 2.1091127618719487 M 7.898737792968751 2.3509877618719486 Q 7.921987792968751 2.3168627618719486 7.921987792968751 2.253862761871949 Q 7.921987792968751 2.192362761871949 7.894987792968751 2.158987761871949 Q 7.867987792968751 2.125612761871949 7.825987792968751 2.125612761871949 Q 7.801987792968751 2.125612761871949 7.782112792968751 2.136112761871949 Q 7.762237792968751 2.146612761871949 7.741987792968751 2.1661127618719487 L 7.741987792968751 2.3408627618719486 Q 7.761487792968751 2.3626127618719486 7.783237792968751 2.373862761871949 Q 7.804987792968751 2.385112761871949 7.836487792968751 2.385112761871949 Q 7.875487792968751 2.385112761871949 7.898737792968751 2.3509877618719486 M 8.243352539062501 2.348362761871949 Q 8.246352539062501 2.348362761871949 8.247852539062501 2.3517377618719486 Q 8.249352539062501 2.3551127618719487 8.247102539062501 2.356612761871949 Q 8.2193525390625 2.379862761871949 8.196102539062501 2.3903627618719487 Q 8.1728525390625 2.4008627618719487 8.147352539062501 2.4008627618719487 Q 8.115852539062502 2.4008627618719487 8.0944775390625 2.3862377618719486 Q 8.073102539062502 2.371612761871949 8.073102539062502 2.337112761871949 L 8.073102539062502 2.1638627618719486 Q 8.073102539062502 2.137612761871949 8.065977539062501 2.1301127618719486 Q 8.058852539062501 2.122612761871949 8.0341025390625 2.122612761871949 Q 8.0318525390625 2.122612761871949 8.0318525390625 2.1166127618719486 Q 8.0318525390625 2.111362761871949 8.0341025390625 2.111362761871949 Q 8.067102539062502 2.110612761871949 8.0873525390625 2.0952377618719487 Q 8.107602539062501 2.079862761871949 8.113602539062502 2.052862761871949 Q 8.114352539062502 2.0506127618719487 8.119602539062502 2.0506127618719487 Q 8.1248525390625 2.0506127618719487 8.1248525390625 2.052862761871949 L 8.1248525390625 2.110612761871949 Q 8.161602539062502 2.1098627618719488 8.2268525390625 2.103112761871949 Q 8.2291025390625 2.103112761871949 8.2306025390625 2.1083627618719487 Q 8.2321025390625 2.113612761871949 8.2321025390625 2.1203627618719487 Q 8.2321025390625 2.127112761871949 8.2298525390625 2.1334877618719488 Q 8.2276025390625 2.1398627618719486 8.2246025390625 2.1391127618719485 Q 8.1773525390625 2.1293627618719486 8.1248525390625 2.127862761871949 L 8.1248525390625 2.311612761871949 Q 8.1248525390625 2.3416127618719487 8.1398525390625 2.3562377618719488 Q 8.154852539062501 2.370862761871949 8.1826025390625 2.370862761871949 Q 8.215602539062502 2.370862761871949 8.241852539062501 2.349112761871949 L 8.243352539062501 2.348362761871949 M 8.358112060546876 2.185612761871949 Q 8.374987060546877 2.2013627618719487 8.406487060546876 2.217862761871949 Q 8.433487060546875 2.232112761871949 8.448112060546876 2.242237761871949 Q 8.462737060546877 2.252362761871949 8.473237060546875 2.268112761871949 Q 8.483737060546876 2.2838627618719487 8.483737060546876 2.3071127618719487 Q 8.483737060546876 2.345362761871949 8.454862060546876 2.372737761871949 Q 8.425987060546877 2.4001127618719487 8.375737060546877 2.4001127618719487 Q 8.336737060546875 2.4001127618719487 8.302237060546876 2.3783627618719487 Q 8.297737060546876 2.373862761871949 8.297737060546876 2.369362761871949 L 8.296237060546876 2.3056127618719486 Q 8.296237060546876 2.303362761871949 8.300362060546876 2.302987761871949 Q 8.304487060546876 2.302612761871949 8.305237060546876 2.3048627618719486 Q 8.318737060546876 2.3423627618719487 8.343112060546876 2.3641127618719486 Q 8.367487060546877 2.385862761871949 8.397487060546876 2.385862761871949 Q 8.418487060546877 2.385862761871949 8.430112060546875 2.3753627618719486 Q 8.441737060546876 2.3648627618719487 8.441737060546876 2.344612761871949 Q 8.441737060546876 2.323612761871949 8.432737060546875 2.3089877618719488 Q 8.423737060546877 2.2943627618719487 8.410612060546876 2.2857377618719488 Q 8.397487060546876 2.277112761871949 8.374987060546877 2.265112761871949 Q 8.350237060546876 2.253112761871949 8.335612060546875 2.243362761871949 Q 8.320987060546877 2.2336127618719486 8.310862060546876 2.217862761871949 Q 8.300737060546876 2.2021127618719487 8.300737060546876 2.1781127618719487 Q 8.300737060546876 2.136112761871949 8.331487060546877 2.114737761871949 Q 8.362237060546876 2.0933627618719486 8.404987060546876 2.0933627618719486 Q 8.434237060546875 2.0933627618719486 8.461987060546877 2.104612761871949 Q 8.468737060546877 2.1068627618719487 8.468737060546877 2.112862761871949 Q 8.468737060546877 2.1293627618719486 8.467987060546877 2.138362761871949 L 8.467237060546877 2.172112761871949 Q 8.467237060546877 2.173612761871949 8.462737060546877 2.173612761871949 Q 8.458237060546876 2.173612761871949 8.458237060546876 2.172112761871949 Q 8.458237060546876 2.157112761871949 8.446237060546876 2.1421127618719487 Q 8.434237060546875 2.127112761871949 8.415862060546877 2.1177377618719486 Q 8.397487060546876 2.1083627618719487 8.378737060546877 2.1083627618719487 Q 8.361487060546876 2.1083627618719487 8.351362060546876 2.1169877618719486 Q 8.341237060546876 2.125612761871949 8.341237060546876 2.1451127618719488 Q 8.341237060546876 2.169862761871949 8.358112060546876 2.185612761871949" fill="#ffffff" fill-rule="nonzero"></path></g></g><defs><clipPath id="SvgjsClipPath5636"><path d=" M -4.4406963172123906 -1.1725882202774478 h 4.04069631721239 v 4.737039202426844 h -4.04069631721239 Z"></path></clipPath><clipPath id="SvgjsClipPath563138edcca5-cbf8-4a78-a2a4-5de13d1ec934"><path d=" M -4.4406963172123906 -1.1725882202774478 L -0.40000000000000036 -1.1725882202774478 L -0.40000000000000036 3.5644509821493964 L -4.4406963172123906 3.5644509821493964 Z"></path></clipPath></defs></svg>